<?xml version="1.0" encoding="utf-8"?>
<!-- Generator: Adobe Illustrator 24.0.1, SVG Export Plug-In . SVG Version: 6.00 Build 0)  -->
<svg version="1.1" id="Layer_1" xmlns="http://www.w3.org/2000/svg" xmlns:xlink="http://www.w3.org/1999/xlink" x="0px" y="0px"
	 viewBox="0 0 394.7 396.5" style="enable-background:new 0 0 394.7 396.5;" xml:space="preserve">
<style type="text/css">
	.st0{opacity:0.53;fill:url(#SVGID_1_);enable-background:new    ;}
	.st1{fill:#E0F3FC;}
	.st2{fill:none;stroke:#E0F3FC;stroke-miterlimit:10;}
	.st3{fill:#47C9F4;}
	.st4{opacity:0.46;fill:url(#SVGID_2_);enable-background:new    ;}
	.st5{opacity:0.46;fill:url(#SVGID_3_);enable-background:new    ;}
	.st6{opacity:0.62;fill:url(#SVGID_4_);enable-background:new    ;}
	.st7{opacity:0.62;fill:url(#SVGID_5_);enable-background:new    ;}
	.st8{opacity:0.65;}
	.st9{fill:#FFFFFF;}
	.st10{opacity:0.46;fill:url(#SVGID_6_);enable-background:new    ;}
	.st11{opacity:0.46;fill:url(#SVGID_7_);enable-background:new    ;}
	.st12{opacity:0.48;}
	.st13{opacity:0.32;fill:url(#SVGID_8_);enable-background:new    ;}
	.st14{opacity:0.67;fill:url(#SVGID_9_);enable-background:new    ;}
	.st15{opacity:0.46;fill:url(#SVGID_10_);enable-background:new    ;}
	.st16{opacity:0.46;fill:url(#SVGID_11_);enable-background:new    ;}
	.st17{opacity:0.46;fill:url(#SVGID_12_);enable-background:new    ;}
	.st18{opacity:0.67;fill:url(#SVGID_13_);enable-background:new    ;}
	.st19{opacity:0.62;fill:url(#SVGID_14_);enable-background:new    ;}
	.st20{opacity:0.53;}
	.st21{opacity:0.46;fill:url(#SVGID_15_);enable-background:new    ;}
	.st22{opacity:0.67;fill:url(#SVGID_16_);enable-background:new    ;}
	.st23{fill:#35495B;}
	.st24{opacity:0.5;fill:#35495B;enable-background:new    ;}
	.st25{opacity:0.51;fill:#35495B;enable-background:new    ;}
	.st26{opacity:0.55;fill:#35495B;enable-background:new    ;}
	.st27{fill:none;stroke:#A6C3CC;stroke-width:2;stroke-miterlimit:10;}
	.st28{fill:#2889A0;}
	.st29{fill:#CE7746;}
	.st30{fill:#7A9926;}
	.st31{fill:url(#SVGID_17_);}
	.st32{opacity:4.000000e-02;}
	.st33{fill:url(#SVGID_18_);}
	.st34{fill:url(#SVGID_19_);}
	.st35{fill:#3FBEEC;}
	.st36{fill:#F29258;}
	.st37{fill:#95BE3C;}
	.st38{fill:#22B1E4;}
	.st39{fill:#AED136;}
	.st40{fill:#95BA66;}
</style>
<title>credit</title>
<g id="Layer_2_1_">
	<g id="credit-score-svg">
		<g id="reflections">
			
				<linearGradient id="SVGID_1_" gradientUnits="userSpaceOnUse" x1="199.8085" y1="1096.4502" x2="208.4085" y2="1161.3402" gradientTransform="matrix(1 0 0 1 0 -826.78)">
				<stop  offset="0" style="stop-color:#53CAF4"/>
				<stop  offset="1" style="stop-color:#50C1E9;stop-opacity:0"/>
			</linearGradient>
			<path class="st0" d="M22.2,332.6c0.3,6.1,13.7,10.4,20.9,12.6c28.4,8.9,39.4-8.8,72.2-4.7c21,2.7,26.8,11.3,43.1,7
				c11.8-3.1,12.4-8.6,24.8-14c22.2-9.8,75-3.4,103.6-9.4c14.1-3-3.6-5.2,9.8-13.6c2.9-2,6.3-3.1,9.8-3.3c8.2-0.3,14.4,5.6,16.3,7.2
				c16.4,13.6,67.9-2.3,67.6-10.9c-0.4-10.9-83.4-17.4-134.4-17.9C139.2,284.7,21.3,314,22.2,332.6z"/>
		</g>
		<g id="graph_fill">
			
				<image style="overflow:visible;enable-background:new    ;" width="355" height="286" xlink:href="923CDE75.png"  transform="matrix(1 0 0 1 15.87 51)">
			</image>
			<polygon class="st1" points="36.1,335.8 20.6,335.8 1,58.2 16.9,51.7 			"/>
		</g>
		<g id="graph_outlines">
			<polygon class="st2" points="16.9,50.5 36.1,334.9 370.6,281 370.6,143.3 			"/>
			<polyline class="st2" points="16.9,50.5 1,57 20.6,334.9 36.1,334.9 			"/>
			<line class="st2" x1="103.2" y1="73.1" x2="113.8" y2="322.4"/>
			<line class="st2" x1="173.6" y1="91.6" x2="181.7" y2="311.4"/>
			<line class="st2" x1="233.8" y1="107.4" x2="238.3" y2="302.3"/>
			<line class="st2" x1="286.7" y1="121.3" x2="286.7" y2="294.5"/>
			<line class="st2" x1="331.6" y1="133" x2="331.6" y2="287.3"/>
			<line class="st2" x1="19.8" y1="94" x2="370.6" y2="168.6"/>
			<line class="st2" x1="22.6" y1="135.8" x2="370.6" y2="195.3"/>
			<line class="st2" x1="25.4" y1="177.4" x2="370.6" y2="222"/>
			<line class="st2" x1="28.2" y1="219.1" x2="370.6" y2="247.3"/>
			<line class="st2" x1="31" y1="259.9" x2="370.6" y2="269.3"/>
		</g>
		<g id="blobs_fill">
			<path class="st3" d="M219.5,275.5l49.3-1.6l46-1.5c25.5-0.8,53.2-2.5,78.7-3.4c-3.3-1.9-5.9-4.6-9.2-6.5s-6.4-3.4-9.5-5
				c-1.4-0.7-2.8-1.5-4.4-2.4c-3-1.7-4.5-3.1-9.2-5.2c-12.6-1.3-27.8,0.3-40,0.2l-22-0.2c-7.9-0.1-15-0.8-23.5,0.3
				c-5.9,1.5-10,4-15,6.3l-7.6,3.4l-17,7.8L219.5,275.5z"/>
			
				<linearGradient id="SVGID_2_" gradientUnits="userSpaceOnUse" x1="304.24" y1="1095.855" x2="394.63" y2="1095.855" gradientTransform="matrix(1 0 0 1 0 -826.78)">
				<stop  offset="0" style="stop-color:#313392;stop-opacity:0"/>
				<stop  offset="1" style="stop-color:#05007F;stop-opacity:0.64"/>
			</linearGradient>
			<path class="st4" d="M394.6,269.4c-25.5,0.8-53.2,2.5-78.7,3.4l-11.7,0.4l84.3-8.1C390.5,266.6,392.5,268.1,394.6,269.4z"/>
			
				<linearGradient id="SVGID_3_" gradientUnits="userSpaceOnUse" x1="338.307" y1="1098.8569" x2="375.787" y2="1062.037" gradientTransform="matrix(1 0 0 1 0 -826.78)">
				<stop  offset="0" style="stop-color:#313392;stop-opacity:0"/>
				<stop  offset="1" style="stop-color:#05007F;stop-opacity:0.64"/>
			</linearGradient>
			<path class="st5" d="M381.4,261.1L328.9,250c10.5-0.3,22.1-1.1,32-0.1c4.8,2.1,6.2,3.5,9.2,5.2c1.5,0.9,3,1.6,4.4,2.4
				C376.8,258.8,379,259.8,381.4,261.1z"/>
			
				<linearGradient id="SVGID_4_" gradientUnits="userSpaceOnUse" x1="220.57" y1="1090" x2="304.24" y2="1090" gradientTransform="matrix(1 0 0 1 0 -826.78)">
				<stop  offset="0" style="stop-color:#FFFFFF"/>
				<stop  offset="1" style="stop-color:#FFFFFF;stop-opacity:0"/>
			</linearGradient>
			<path class="st6" d="M304.2,272.2c-4.8,0.2-9.6,0.3-14.4,0.5l-13.2,0.4c-18.7,0.6-37.4,1.2-56.1,1.7c6.3-2.8,12.6-5.6,18.9-8.5
				c6.5-2.9,12.9-5.8,19.4-8.7l8.6-3.9c1.6-0.7,3-1.4,4.5-2.1l18,11.4L304.2,272.2z"/>
			<path class="st3" d="M114.7,276.6l16.1-1.1c9.7-0.6,19.4-1.9,29.1-2.5l3.5-0.2l12.6-0.8l10.7-0.7l27.7-1.8l28.9-1.9l42.5-2.8h0.4
				h0.4l-41.6-7h-0.2c-9.6-0.4-19.2,0.4-28.8,0.6l-27.5,0.5c-3.5,0.1-7.1,0.1-10.6,0.3l-12.5,0.8l-3.4,0.2c-9.6,0.6-19,0.3-28.7,0.9
				c-5.3,0.3-9.7,0.5-15,2.8c-2.7,4-2,4.2-2.4,6.4L114.7,276.6z"/>
			
				<linearGradient id="SVGID_5_" gradientUnits="userSpaceOnUse" x1="114.73" y1="1094.8149" x2="176" y2="1094.8149" gradientTransform="matrix(1 0 0 1 0 -826.78)">
				<stop  offset="0" style="stop-color:#FFFFFF"/>
				<stop  offset="0.68" style="stop-color:#FFFFFF;stop-opacity:0"/>
			</linearGradient>
			<path class="st7" d="M176,271.5L176,271.5l-12.6,0.8l-3.5,0.2c-9.7,0.6-19.4,1.9-29.1,2.5l-16.1,1.1l1.1-6.5
				c0.4-2.3-0.2-2.4,2.4-6.4c5.3-2.3,9.7-2.5,15-2.8c6.5-0.4,12.9-0.4,19.3-0.5L176,271.5z"/>
			<path class="st3" d="M219.5,302.1h115.1c15.6,0,16.9,1.3,32.5,1.3h26.4v-34.3l-7.3,0.2c-1.6,0-18.4-0.3-20-0.2
				c-15.6,0.5-15.9,1.4-31.5,1.9l-40,1.3l-75.1,2.4L219.5,302.1L219.5,302.1z"/>
			<g class="st8">
				<path class="st9" d="M393.6,269.7c-7.3,0.4-14.5,0.1-21.8,0l-5.4-0.1c-1.8,0-3.6,0.1-5.4,0.2c-3.6,0.2-7.2,0.4-10.9,0.7
					c-7.2,0.7-14.5,0.9-21.7,1.1l-21.8,0.6l-87,2.6l87-2.9l21.8-0.7c7.3-0.2,14.5-0.4,21.7-1.1c3.6-0.3,7.2-0.6,10.9-0.8
					c1.8-0.1,3.6-0.2,5.4-0.2l5.4,0c7.3,0,14.5,0.3,21.8-0.1V269.7z"/>
			</g>
			
				<linearGradient id="SVGID_6_" gradientUnits="userSpaceOnUse" x1="355.56" y1="1113.0223" x2="393.47" y2="1113.0223" gradientTransform="matrix(1 0 0 1 0 -826.78)">
				<stop  offset="0" style="stop-color:#313392;stop-opacity:0"/>
				<stop  offset="1" style="stop-color:#05007F;stop-opacity:0.64"/>
			</linearGradient>
			<path class="st10" d="M393.5,269.1v34.3h-26.4c-5,0-8.5-0.1-11.5-0.3v-33.5c2.7-0.2,6-0.4,10.6-0.5c1.6,0,18.4,0.3,20,0.2
				L393.5,269.1z"/>
			
				<linearGradient id="SVGID_7_" gradientUnits="userSpaceOnUse" x1="325.59" y1="1114.11" x2="238.59" y2="1114.11" gradientTransform="matrix(1 0 0 1 0 -826.78)">
				<stop  offset="0" style="stop-color:#313392;stop-opacity:0"/>
				<stop  offset="0.38" style="stop-color:#110E84;stop-opacity:0.47"/>
				<stop  offset="1" style="stop-color:#05007F;stop-opacity:0.64"/>
			</linearGradient>
			<path class="st11" d="M323.1,272.2v30.3h-87v-27.5l75.1-2.4L323.1,272.2z"/>
			<path class="st3" d="M114.7,318.9c1.7-0.1,16.9,0.1,18.6,0l15.4-0.6c7.8-0.3,15.4-0.6,22.8-0.9l8.6-0.4l9.6-0.4
				c14.8-0.6,29.3-1.3,44.3-1.9c13.4-0.6,27.1-1.1,41.6-1.6l9.9-0.4l0.5-27.1l0.4-21.4h-9.3l-41.6,0.1l-25.5,0.1
				c-3.3,0-6.7,0.2-10,0.6c-4.5,0.6-4.8,0.6-8.7,1.1c-3.4,0.5-10.6,1.5-13.7,1.9c-2.8,0.4-8.4,0.5-11.1,0.9c-7,1-10.8,2.3-18.5,3.4
				c-4.8,0.7-10,1.4-15.7,2.1c-1.7,0.2-16,1-17.7,1.3L114.7,318.9L114.7,318.9z"/>
			<g class="st12">
				<path class="st3" d="M114.2,275.8c1.7-0.2,16-1,17.6-1.3c5.7-0.7,10.9-1.4,15.7-2.1c7.6-1.1,11.5-2.4,18.5-3.4
					c2.7-0.4,8.3-0.5,11.1-0.9c3.1-0.5,10.3-1.4,13.7-1.9c3.9-0.5,4.2-0.5,8.7-1.1c3.3-0.4,6.7-0.6,10-0.6c8.5,0,17,0,25.5,0
					l41.6-0.1h9.3"/>
				<path class="st9" d="M114.1,275.4c3.6-0.3,7.2-0.5,10.8-0.7l5.4-0.4c1.8-0.1,3.6-0.4,5.3-0.6c7.1-1,14.3-1.6,21.3-3.2
					c3.5-0.8,7.1-1.4,10.6-1.9c3.6-0.3,7.2-0.3,10.7-0.9c7.1-1,14.2-2,21.4-2.8c3.6-0.4,7.2-0.6,10.8-0.6H286l-43.1,0.2l-21.6,0.1
					l-10.8,0c-3.6,0-7.2,0.2-10.7,0.6c-7.1,0.9-14.3,1.9-21.4,2.9c-3.6,0.6-7.2,0.6-10.8,0.9c-3.6,0.4-7.1,1.1-10.6,1.9
					c-7,1.6-14.2,2.3-21.3,3.3c-1.8,0.2-3.6,0.5-5.4,0.6l-5.4,0.4c-3.6,0.3-7.2,0.5-10.7,0.8L114.1,275.4z"/>
			</g>
			
				<linearGradient id="SVGID_8_" gradientUnits="userSpaceOnUse" x1="252.85" y1="1115.99" x2="286.79" y2="1115.99" gradientTransform="matrix(1 0 0 1 0 -826.78)">
				<stop  offset="0" style="stop-color:#313392;stop-opacity:0"/>
				<stop  offset="1" style="stop-color:#05007F;stop-opacity:0.64"/>
			</linearGradient>
			<path class="st13" d="M286.8,264.4l-0.4,21.4c-0.2,9,0.4,18,0.2,27.1c-3.4,0.1-7.4,0.2-10.6,0.4c-7.9,0.3-15.6,0.6-23.1,0.9
				v-49.6c8.2,0,16.4,0,24.6,0L286.8,264.4z"/>
			
				<linearGradient id="SVGID_9_" gradientUnits="userSpaceOnUse" x1="164.6" y1="1118.525" x2="192.04" y2="1118.525" gradientTransform="matrix(1 0 0 1 0 -826.78)">
				<stop  offset="0" style="stop-color:#FFFFFF;stop-opacity:0"/>
				<stop  offset="0.1" style="stop-color:#FFFFFF;stop-opacity:2.000000e-02"/>
				<stop  offset="0.21" style="stop-color:#FFFFFF;stop-opacity:7.000000e-02"/>
				<stop  offset="0.32" style="stop-color:#FFFFFF;stop-opacity:0.15"/>
				<stop  offset="0.43" style="stop-color:#FFFFFF;stop-opacity:0.26"/>
				<stop  offset="0.54" style="stop-color:#FFFFFF;stop-opacity:0.41"/>
				<stop  offset="0.54" style="stop-color:#FFFFFF;stop-opacity:0.42"/>
				<stop  offset="0.63" style="stop-color:#FFFFFF;stop-opacity:0.36"/>
				<stop  offset="0.81" style="stop-color:#FFFFFF;stop-opacity:0.2"/>
				<stop  offset="1" style="stop-color:#FFFFFF;stop-opacity:0"/>
			</linearGradient>
			<path class="st14" d="M196,266.5v49.4l-25.4,1l-2,0.1v-48.3l3.7-0.5c3.9-0.5,4.2-0.5,8.7-1.1c3.3-0.4,6.7-0.6,10-0.6L196,266.5z"
				/>
			
				<linearGradient id="SVGID_10_" gradientUnits="userSpaceOnUse" x1="154.9581" y1="1137.3815" x2="120.9781" y2="1095.6315" gradientTransform="matrix(1 0 0 1 0 -826.78)">
				<stop  offset="0.45" style="stop-color:#313392;stop-opacity:0"/>
				<stop  offset="1" style="stop-color:#05007F;stop-opacity:0.64"/>
			</linearGradient>
			<path class="st15" d="M168.5,269.2v48.7c-6.5,0.3-13.1,0.5-19.9,0.8l-15.4,0.6c-1.7,0.1-16.9-0.1-18.6,0v-43.1
				c1.7-0.2,16-1,17.6-1.3c5.7-0.7,10.9-1.4,15.7-2.1c7.6-1.1,11.5-2.4,18.5-3.4C167.1,269.3,167.8,269.2,168.5,269.2z"/>
			<path class="st3" d="M18.3,306.9c3.1-0.3,7.2-0.6,10.3-0.9c10-1,21.9-2,31.9-3l85.9-8.5c0.3,0,0.6-0.1,0.8-0.2
				c0.7-0.3,0.4-1.1-0.2-1.3c-0.8-0.3-1.6-0.5-2.5-0.6l-36.5-10.3c-1.9-0.5-3.8-0.7-5.7-0.6l-27.2,1.8L50.4,285l-7.6,0.5l-10.5,9.7
				c-2.9,2.6-7.7,5.3-10.6,8c-1,0.9-2.9,1.8-3.9,2.7c-0.2,0.2-0.2,0.6,0,0.9C17.9,306.9,18.1,306.9,18.3,306.9z"/>
			
				<linearGradient id="SVGID_11_" gradientUnits="userSpaceOnUse" x1="112.17" y1="1119.465" x2="149.0525" y2="1119.465" gradientTransform="matrix(1 0 0 1 0 -826.78)">
				<stop  offset="0" style="stop-color:#313392;stop-opacity:0"/>
				<stop  offset="1" style="stop-color:#05007F;stop-opacity:0.64"/>
			</linearGradient>
			<path class="st16" d="M148.7,294.2c-0.3,0.1-0.5,0.2-0.8,0.2l-35.7,3.6l16.2-10.6l17.6,5c0.8,0.1,1.7,0.3,2.5,0.6
				C149,293.2,149.4,293.9,148.7,294.2z"/>
			<path class="st3" d="M22,333.6c1.7,1.7,3.9,1.3,6.1,1.2l111.9-6.5l7.2-0.4c1.7-0.1,3.1-1.5,3.1-3.3v-28.1c0-1.8-1.4-3.2-3.2-3.2
				h-0.3l-1.5,0.1c-38.4,3.5-78.8,7-117.2,10.5c-2.3,0.2-5.5,0.4-7.8,0.6c-1.5,0.2-2.7,1.4-2.7,3c0,4.2,1,8.4,1,12.6
				c0,3.4,1,6.8,1,10.2C19.6,331.6,21.1,332.7,22,333.6z"/>
			
				<linearGradient id="SVGID_12_" gradientUnits="userSpaceOnUse" x1="107.99" y1="1138.4836" x2="150.26" y2="1138.4836" gradientTransform="matrix(1 0 0 1 0 -826.78)">
				<stop  offset="0" style="stop-color:#313392;stop-opacity:0"/>
				<stop  offset="1" style="stop-color:#05007F;stop-opacity:0.64"/>
			</linearGradient>
			<path class="st17" d="M150.3,296.4v28.1c0,1.8-1.4,3.2-3.1,3.3l-7.1,0.4l-32,1.9v-33.4l37.3-3.4l1.5-0.1c1.8-0.2,3.3,1.1,3.5,2.9
				C150.2,296.3,150.3,296.3,150.3,296.4z"/>
			
				<linearGradient id="SVGID_13_" gradientUnits="userSpaceOnUse" x1="17.61" y1="1146.6327" x2="34.64" y2="1146.6327" gradientTransform="matrix(1 0 0 1 0 -826.78)">
				<stop  offset="0" style="stop-color:#FFFFFF"/>
				<stop  offset="1" style="stop-color:#FFFFFF;stop-opacity:0"/>
			</linearGradient>
			<path class="st18" d="M32.6,304.5l2,30.3l-4.4,0.2c-0.9,0-1.7,0.1-2.6,0.1c-1.9,0.2-3.7-0.3-5.3-1.3c-1.1-0.8-2.7-2-2.7-3.2
				l-2-22.5c0-0.4,0.1-0.8,0.3-1.1c0.1-0.2,0.2-0.3,0.3-0.5c0.1-0.2,0.3-0.3,0.4-0.4c0.1-0.1,0.2-0.1,0.2-0.2c1-0.5,2.1-0.7,3.2-0.8
				l3.6-0.2l5.1-0.4C31.4,304.6,32,304.5,32.6,304.5z"/>
			
				<linearGradient id="SVGID_14_" gradientUnits="userSpaceOnUse" x1="10.6299" y1="1154.4299" x2="106.2499" y2="1106.6998" gradientTransform="matrix(1 0 0 1 0 -826.78)">
				<stop  offset="0" style="stop-color:#FFFFFF"/>
				<stop  offset="1" style="stop-color:#FFFFFF;stop-opacity:0"/>
			</linearGradient>
			<path class="st19" d="M124.6,296.3l-64.2,6.4c-10,1-21.9,2-31.9,3c-3.1,0.3-7.2,0.6-10.3,0.9c-0.3,0-0.6-0.2-0.6-0.5c0,0,0,0,0,0
				c0-0.2,0.1-0.4,0.2-0.5c1-0.9,2.9-1.8,3.9-2.7c2.9-2.6,7.7-5.3,10.6-8l8.2-7.6L124.6,296.3z"/>
			<g class="st20">
				<polygon class="st9" points="17.8,305.6 148.7,294.2 17.8,306.1 				"/>
			</g>
			
				<linearGradient id="SVGID_15_" gradientUnits="userSpaceOnUse" x1="243.5193" y1="1094.0096" x2="251.8293" y2="1076.6497" gradientTransform="matrix(1 0 0 1 0 -826.78)">
				<stop  offset="0" style="stop-color:#313392;stop-opacity:0"/>
				<stop  offset="1" style="stop-color:#05007F;stop-opacity:0.64"/>
			</linearGradient>
			<path class="st21" d="M257.3,259.6l-14.3,7.7h-0.3l-3,0.2l-1.6-10.2c2.1,0,4.1,0,6.2,0.1h0.2L257.3,259.6z"/>
			
				<linearGradient id="SVGID_16_" gradientUnits="userSpaceOnUse" x1="291.5174" y1="1088.9788" x2="248.6074" y2="1091.1687" gradientTransform="matrix(1 0 0 1 0 -826.78)">
				<stop  offset="0" style="stop-color:#FFFFFF"/>
				<stop  offset="0.87" style="stop-color:#FFFFFF;stop-opacity:0"/>
			</linearGradient>
			<path class="st22" d="M285.8,265.4h-0.4H285l-42.2,2.8l14.3-7.7l0,0C266.7,262.2,276.2,263.8,285.8,265.4z"/>
		</g>
		<g id="shadow">
			<polygon class="st23" points="77,292.8 112,286.1 93.7,283.4 87.3,283.4 			"/>
			<polygon class="st24" points="116.6,276 139.6,276.4 137.7,289.8 116.6,284.1 			"/>
			<polygon class="st25" points="255.9,259.6 275.1,253.9 275.1,253.9 275.2,253.9 291.7,254.2 291.7,254.2 297.7,252.7 
				291.7,254.4 291.7,254.4 291.7,254.4 275.1,254.4 274.9,254.5 257.2,259.8 			"/>
			<polygon class="st26" points="116.6,276 139.6,276.4 224.3,263 234.9,266.5 256.7,259.7 255.3,259.5 235.3,264.4 224.4,261.3 			
				"/>
		</g>
		<g id="outline">
			<path class="st27" d="M19.3,328.7L1,57l15.8-6.6l297.2,77.9l57,15.1L370.6,254l20.2,11.8c1.8,1,2.9,2.9,2.9,5v29.3
				c0,1.9-1.5,3.4-3.4,3.4h0h-0.1l-35-0.6l-21.3-0.6h-46.6l-0.1,7.6c0,1.7-1.4,3.1-3.2,3.2l-45.1,1.7l-54.9,2.4l-33.2,1.1v5.9
				c0,2.3-0.8,4.2-3.2,4.3l-17.1,0.6l-94.5,5.9l-8.6,0.8c-4.1,0.4-7.8-2.6-8.2-6.7c0,0,0,0,0,0C19.3,328.9,19.3,328.8,19.3,328.7z"
				/>
		</g>
		<g id="guy">
			<path class="st28" d="M319.3,94.3l-8.4,17.7l-7.9-1.8l8.5-16.7l-8.9-2v-6.8l16.7,3.8L319.3,94.3z"/>
			<path class="st28" d="M327.8,103.4c1.8-1.4,2.6-2.8,2.6-4.3c0-1.2-0.4-1.9-1.2-2.1c-0.4-0.1-0.8,0-1,0.4
				c-0.3,0.7-0.3,1.5-0.3,2.3l-7.4-1.7c0-1.8,0.4-3.6,1.4-5.1c0.8-1.2,2-2,3.4-2.3c1.5-0.3,3.1-0.3,4.6,0.1c2.5,0.4,4.8,1.7,6.4,3.7
				c1.3,1.7,2,3.7,2,5.9c0,2.2-0.7,4.2-2.2,5.8c-1.5,1.7-3.4,3-5.5,3.9l7.9,1.8v6.3l-17.9-4v-6C323.1,106.7,325.5,105.2,327.8,103.4
				z"/>
			<path class="st28" d="M340.3,106c0-3.9,0.9-6.8,2.6-8.7c1.7-1.9,4.3-2.4,7.8-1.6c3.2,0.6,6,2.5,7.8,5.3c1.8,3,2.7,6.4,2.6,9.8
				c0,3.9-0.9,6.8-2.6,8.7s-4.3,2.5-7.8,1.7c-3.2-0.6-6-2.5-7.8-5.3C341.1,112.9,340.2,109.5,340.3,106z M353.5,109
				c0-1.4-0.1-2.7-0.5-4c-0.4-1-1.2-1.7-2.3-1.9c-1.1-0.3-1.9,0-2.3,0.8c-0.4,1.2-0.6,2.5-0.5,3.8c0,1.4,0.1,2.7,0.5,4
				c0.4,1,1.2,1.7,2.3,1.9c1.1,0.3,1.9,0,2.3-0.9C353.4,111.5,353.6,110.3,353.5,109z"/>
			<path class="st28" d="M57.8,239.2h-8v2.3c0.4-0.3,0.9-0.6,1.4-0.7c0.6-0.2,1.2-0.3,1.9-0.3c1.1,0,2.2,0.3,3.2,0.9
				c0.9,0.6,1.5,1.4,1.9,2.4c0.4,1,0.6,2.1,0.6,3.3c0.3,3.5-2.2,6.7-5.7,7c-0.4,0-0.8,0-1.3,0c-1.4,0-2.8-0.2-4.1-0.8
				c-1.1-0.5-2-1.3-2.6-2.3c-0.6-1-0.9-2.2-0.8-3.3h6c0,0.3,0.1,0.6,0.3,0.8c0.3,0.3,0.6,0.4,1,0.4c0.4,0,0.8-0.2,1-0.5
				c0.2-0.4,0.4-0.9,0.3-1.4c0-0.4-0.1-0.9-0.4-1.2c-0.3-0.3-0.7-0.4-1.1-0.4c-0.3,0-0.6,0.1-0.9,0.3c-0.2,0.2-0.3,0.4-0.3,0.6h-6
				v-12.4h13.6V239.2z"/>
			<path class="st28" d="M66.4,244.3c1.4-1.4,2.1-2.7,2.1-3.8c0-0.9-0.3-1.4-1-1.4c-0.3,0-0.6,0.2-0.8,0.5c-0.2,0.6-0.3,1.2-0.2,1.8
				h-5.9c0-1.5,0.4-2.9,1.1-4.2c0.6-1.1,1.6-1.9,2.7-2.4c1.1-0.5,2.4-0.8,3.6-0.7c2.3,0,4,0.6,5.1,1.7c1.1,1.1,1.7,2.6,1.6,4.2
				c0,1.8-0.6,3.5-1.7,4.9c-1.2,1.6-2.7,2.9-4.4,4h6.3v4.9H60.7v-4.6C62.7,247.6,64.6,246,66.4,244.3z"/>
			<path class="st28" d="M76.4,244c-0.1-2.6,0.6-5.1,2-7.2c1.3-1.8,3.4-2.7,6.2-2.7c2.8,0,4.9,0.9,6.2,2.7c2.7,4.4,2.7,10,0,14.4
				c-1.3,1.8-3.4,2.7-6.2,2.7c-2.8,0-4.9-0.9-6.2-2.7C77,249.1,76.3,246.6,76.4,244z M86.9,244c0-1-0.1-2-0.4-3
				c-0.6-1-1.8-1.4-2.8-0.8c-0.3,0.2-0.6,0.5-0.8,0.8c-0.3,1-0.5,2-0.4,3c0,1,0.1,2,0.4,3c0.5,1,1.8,1.4,2.8,0.8
				c0.3-0.2,0.6-0.5,0.8-0.8C86.8,246,87,245,86.9,244z"/>
			<path class="st29" d="M188.6,145.7c-0.2-0.3-0.6-0.5-1-0.5c-0.6-0.2-1.2,0.2-1.4,0.8c0,0,0,0,0,0l0,0c-0.3,1.1-0.4,2.1-0.3,3.2
				c0.4-0.5,0.9-0.8,1.4-1c0.7-0.2,1.4-0.2,2.1-0.1c1.6,0.2,3.2,1,4.2,2.3c1.1,1.4,1.7,3.2,1.6,5c0,1.2-0.3,2.4-0.9,3.5
				c-0.6,0.9-1.4,1.6-2.5,2c-1.2,0.4-2.5,0.5-3.8,0.2c-2.9-0.4-4.9-1.7-6-3.6c-1.2-2.4-1.8-5.1-1.7-7.7c-0.1-2,0.2-4,0.8-5.9
				c0.4-1.3,1.3-2.4,2.4-3c1.4-0.6,2.9-0.7,4.4-0.4c2,0.2,3.7,1.2,5,2.7c1.1,1.4,1.7,3.1,1.8,4.9l-5.7-0.9
				C189.1,146.6,188.9,146.1,188.6,145.7z M186.8,155.2c0.3,0.3,0.7,0.5,1.2,0.6c0.4,0.1,0.8,0,1.2-0.2c0.3-0.3,0.5-0.7,0.4-1.2
				c0-0.5-0.2-0.9-0.4-1.2c-0.3-0.3-0.7-0.5-1.2-0.6c-0.4-0.1-0.8,0-1.2,0.2c-0.3,0.3-0.5,0.7-0.4,1.1
				C186.3,154.4,186.5,154.9,186.8,155.2L186.8,155.2z"/>
			<path class="st29" d="M199.1,144.7c0.6-0.8,1.5-1.4,2.4-1.7c1.3-0.4,2.7-0.5,4-0.2c1.4,0.2,2.8,0.7,4,1.5c1,0.6,1.8,1.5,2.4,2.5
				c0.5,0.8,0.8,1.8,0.8,2.8c0,0.8-0.2,1.7-0.6,2.4c-0.4,0.6-1,1.1-1.7,1.4c1.8,1.2,2.8,3.2,2.8,5.3c0.2,2.4-1.5,4.6-3.9,5.1
				c-1.3,0.3-2.6,0.4-3.9,0.1c-1.4-0.2-2.7-0.7-3.9-1.4c-1.1-0.6-2.1-1.6-2.8-2.6c-0.7-1.1-1-2.4-1-3.7c-0.1-1.9,1-3.7,2.8-4.4
				c-0.7-0.5-1.3-1.2-1.7-1.9c-0.4-0.8-0.6-1.7-0.6-2.6C198.3,146.3,198.6,145.5,199.1,144.7z M204.3,158.3c0.3,0.4,0.8,0.7,1.3,0.7
				c0.5,0.1,1,0,1.3-0.3c0.3-0.3,0.5-0.8,0.5-1.3c0-0.5-0.2-1-0.5-1.4c-0.3-0.4-0.8-0.7-1.3-0.8c-0.5-0.1-1,0-1.3,0.3
				c-0.3,0.3-0.5,0.8-0.5,1.3C203.8,157.3,203.9,157.8,204.3,158.3L204.3,158.3z M204.7,150.5c0.2,0.3,0.5,0.5,0.9,0.6
				c0.3,0.1,0.7,0,0.9-0.3c0.3-0.3,0.4-0.7,0.4-1.2c0-0.5-0.1-0.9-0.4-1.3c-0.2-0.3-0.5-0.5-0.9-0.6c-0.3-0.1-0.7,0.1-0.9,0.3
				c-0.3,0.3-0.4,0.7-0.4,1.2C204.3,149.7,204.4,150.2,204.7,150.5z"/>
			<path class="st29" d="M215.6,155.2c0-3,0.7-5.3,2-6.9c1.3-1.6,3.4-2.1,6.2-1.7c2.5,0.3,4.8,1.6,6.2,3.7c1.4,2.2,2.1,4.9,2.1,7.5
				c0,3-0.7,5.3-2.1,6.9s-3.4,2.2-6.2,1.7c-2.5-0.3-4.8-1.6-6.2-3.7C216.1,160.5,215.4,157.9,215.6,155.2z M226.1,156.9
				c0-1-0.1-2.1-0.4-3.1c-0.3-0.8-1-1.3-1.8-1.4c-0.7-0.2-1.5,0.1-1.8,0.8c-0.3,1-0.5,2-0.4,3c0,1.1,0.1,2.1,0.4,3.1
				c0.3,0.8,1,1.3,1.8,1.4c0.7,0.2,1.5-0.1,1.8-0.8C226,158.9,226.1,157.9,226.1,156.9L226.1,156.9z"/>
			<path class="st30" d="M249.6,122.5l-6.7,14.2l-6.3-1l6.8-13.5l-7.1-1.1v-5.3l13.3,2.1V122.5z"/>
			<path class="st30" d="M250.7,128c0-3,0.7-5.3,2-6.9c1.4-1.6,3.4-2.1,6.2-1.7c2.5,0.3,4.8,1.6,6.2,3.7c1.4,2.2,2.1,4.9,2,7.5
				c0,3-0.7,5.3-2,6.9c-1.3,1.6-3.4,2.1-6.2,1.7c-2.5-0.3-4.8-1.6-6.2-3.7C251.3,133.3,250.6,130.7,250.7,128z M261.3,129.7
				c0-1-0.1-2.1-0.4-3.1c-0.3-0.8-1-1.3-1.8-1.3c-0.7-0.2-1.5,0.1-1.8,0.8c-0.3,0.9-0.5,1.9-0.4,3c0,1.1,0.1,2.1,0.4,3.1
				c0.3,0.8,1,1.3,1.8,1.4c0.7,0.2,1.5-0.1,1.8-0.8C261.2,131.7,261.3,130.6,261.3,129.7L261.3,129.7z"/>
			<path class="st30" d="M269,130.9c0-3,0.7-5.3,2-6.9s3.4-2.1,6.2-1.7c2.5,0.3,4.8,1.6,6.2,3.7c1.4,2.2,2.1,4.9,2,7.5
				c0,3-0.7,5.3-2,6.9c-1.3,1.6-3.4,2.1-6.2,1.7c-2.5-0.3-4.8-1.6-6.2-3.7C269.6,136.2,268.9,133.5,269,130.9z M279.5,132.6
				c0-1.1-0.1-2.1-0.5-3.1c-0.3-0.8-1-1.3-1.8-1.3c-0.9-0.2-1.5,0.1-1.8,0.8c-0.3,1-0.5,2-0.4,3c0,1.1,0.1,2.1,0.4,3.1
				c0.3,0.8,1,1.3,1.8,1.4c0.7,0.2,1.5-0.1,1.8-0.8C279.4,134.6,279.6,133.6,279.5,132.6L279.5,132.6z"/>
			
				<linearGradient id="SVGID_17_" gradientUnits="userSpaceOnUse" x1="308.04" y1="1058.7" x2="348.5" y2="1058.7" gradientTransform="matrix(1 0 0 1 0 -826.78)">
				<stop  offset="0" style="stop-color:#FFFFFF"/>
				<stop  offset="0.37" style="stop-color:#FDFDFD"/>
				<stop  offset="0.51" style="stop-color:#F6F6F6"/>
				<stop  offset="0.6" style="stop-color:#EBEBEB"/>
				<stop  offset="0.68" style="stop-color:#DADADA"/>
				<stop  offset="0.75" style="stop-color:#C4C4C4"/>
				<stop  offset="0.8" style="stop-color:#A8A8A8"/>
				<stop  offset="0.86" style="stop-color:#888888"/>
				<stop  offset="0.91" style="stop-color:#626262"/>
				<stop  offset="0.95" style="stop-color:#373737"/>
				<stop  offset="0.99" style="stop-color:#090909"/>
				<stop  offset="1" style="stop-color:#000000"/>
			</linearGradient>
			<path class="st31" d="M311.3,231.9c0,0.5-2.4,18.9-2.4,18.9l22.1,6.9l9.5-17.1c0,0,4.5-16.4,4.8-16.8s-2.1-8.2-2.1-8.2l-4.2-6.6
				l-11-2.9c0,0-9.6,2.1-10,2.2s-7.4,4.4-8,5.3s-2.1,7.9-2,9.4S311.3,231.9,311.3,231.9z"/>
			<path d="M316.2,316.2c0,0,0.9,7.2-3,12.4c-1.2,1.6,0,2.3,0,2.3l5.8-0.8l1.7-2.3c0.4-0.6,0.7-1.4,0.7-2.1l0,0
				c0-1.7,0.9-3.2,2.3-4.1l2.4-1.5v-1c0-1.5-0.7-2.8-1.9-3.6l-1.8-1.2"/>
			<path d="M344.6,314.3c0,0,2,6.8,1.4,8.3s-0.3,7.8,3.1,9.4c2,0.9,4.4,0.5,6-1.1c0.2-2.6-0.3-5.2-1.5-7.5c-2-3.5-2.3-9.1-2.3-9.1"
				/>
			<path d="M309.1,248.6c0,0,4.2,7.1,17.2,5.1s15.1-4.5,15.1-4.5l-2.2,13.8l3,23.3c0,0,7.5,15.1,7.6,22.4c0,0,2.9,5.8,3.7,5.8
				s-3.7,3.7-3.7,3.7h-7.7l-0.8-12c0,0-6.9-8.8-7.1-14.6s-8-20-8-20l-3.5-4.1l-2.7,26.8l1.6,17.5l2,5.4l-2.6,1.1l-8.2,2.5l-0.1-24.5
				l-1.7-13.5l-3.1-18.9L309.1,248.6z"/>
			<g class="st32">
				
					<linearGradient id="SVGID_18_" gradientUnits="userSpaceOnUse" x1="320.8355" y1="1170.02" x2="320.8355" y2="1200.39" gradientTransform="matrix(1 0 0 1 0 -826.78)">
					<stop  offset="0" style="stop-color:#000000"/>
					<stop  offset="1" style="stop-color:#030709;stop-opacity:0"/>
				</linearGradient>
				<path class="st33" d="M325.6,358.7l-1.8,1.2l2.6,1.1l-2,5.4l-0.7,7.3l-8.2-0.4l0.1-15.8l1.9,0.6c0,0,0.9-7.2-3-12.4
					c-1.2-1.6,0-2.3,0-2.3l5.9,0.8l1.7,2.3c0.4,0.6,0.7,1.4,0.7,2.1c0,1.7,0.9,3.2,2.3,4.1l2.4,1.5v1
					C327.6,356.5,326.8,357.9,325.6,358.7z"/>
				
					<linearGradient id="SVGID_19_" gradientUnits="userSpaceOnUse" x1="349.3401" y1="1168.46" x2="349.3401" y2="1201.78" gradientTransform="matrix(1 0 0 1 0 -826.78)">
					<stop  offset="0" style="stop-color:#000000"/>
					<stop  offset="1" style="stop-color:#030709;stop-opacity:0"/>
				</linearGradient>
				<path class="st34" d="M356.3,363.6c-0.8,0-3.7,5.8-3.7,5.8c-0.1,1.9-0.5,3.8-1,5.6l-9.4-0.5c1.1-1.6,1.9-2.7,1.9-2.7l0.8-12h1.1
					c0,0,2-6.8,1.4-8.3s-0.3-7.9,3.1-9.4c2-0.9,4.4-0.5,5.9,1.1c0.2,2.6-0.3,5.2-1.5,7.5c-2,3.5-2.3,9.1-2.3,9.1
					S357.1,363.6,356.3,363.6z"/>
			</g>
			<path d="M314.4,176.3h4.1l0.3-6.5c0.3-0.2,0.6-0.5,0.7-0.8c0.1-0.2-0.1-0.9,0-1.1c0.2-0.4,0.3-0.7,0.4-1.1c0.1-0.5,0.1-1,0-1.5
				c0.1-0.2-3.3-1-4.4-0.9c-0.3,0-0.9,0.7-1.2,1.2c-0.2,0.3-0.3,0.7-0.2,1l1.5,4.9L314.4,176.3z"/>
			<path class="st9" d="M319.7,178.1l-6.5-0.1l-0.4-2.7l1.3-1c-0.2,4.2,5.4,0.9,5.1,0.6l0.2-0.6l0.2,0.3l0.3,1.3L319.7,178.1z"/>
			<path d="M369.1,245.4c-1.1-0.1-2.2-0.5-3.1-1.2l-1.8-0.1l-2.2-1.6l-1.8,1.4c0.3,0.8,0.6,1.5,1.1,2.1c0.5,0.8,1,1.7,1.4,2.5
				l3.4,2.6l1.4,0.1l0.8-0.4l-0.2-1.2l-0.3-0.6l-0.6-1.8l-1-1.4c0.1-0.4,0.4-0.2,0.4-0.2l1.8,0.3c0.2,0,0.3-0.1,0.5-0.2
				C369.1,245.6,369.2,245.4,369.1,245.4z"/>
			<path class="st9" d="M360.1,245.2l-2.2-1.7l4.5-1.8l0.7,1.3h-0.3c-0.7-0.1-1.5,0.1-2,0.6c-0.4,0.4-0.5,1-0.3,1.5
				c0.1,0.4,0.7,0.4,0.6,0.6v0.3L360.1,245.2z"/>
			<path d="M329,209.2l-2.3-0.7v3.3c0,0.5-0.4,1-0.9,1.1l-11,6.2c-0.9,0.2-2.8,4.2-2.9,5.1c-0.4,4.1-1,10.7-0.2,11.6
				c1.1,1.1-1.4,3.9-1.4,3.9s-9.4-18.3-19.3-22.7c-3.2-1.5-6.5-2.6-9.9-3.4c-0.6-0.1-1-0.7-0.9-1.3c0-0.2,0.1-0.4,0.2-0.5
				c1.5-2,4.1-5.1,5-5.3c4-1,22.8-0.2,26.2,0c0.3,0,0.5-0.2,0.5-0.5c0,0,0,0,0,0v0l-0.1-1.8c-0.1-1.6,0.1-3.2,0.3-4.8l0.8-2.7
				c0.3-0.9,0.2-1.9-0.1-2.7l-0.5-1.3c-0.2-0.9,0.6-2.2,0.9-3.3l0.1-1.2l-0.6-13l1.3-0.9c0,0-3.3,5.3,4.2,3.3
				c0.9-0.2,1.6-0.9,1.9-1.7c0.3-1-1.2-1.6-0.6-1.6l1.7,13.6l1.8,9.6l0.5,1.7v1.1l0.1,0.5c0,0,5.9,0.4,5.9,4.9L329,209.2z"/>
			<path d="M339.4,212.7c0.1,0.3,1.8,4.6,1.9,4.9c0.9,1.9,3.2,10.5-0.6,11.8c-4.3,1.4-4,5.2-4,7.7s-0.1,13.2-4.9,13.1
				s-1.2,6.5-1.2,6.5s14.2,9.1,14.1,8c-0.8-7.1,2.1-7.5,0.2-16.4c-2-9.2,5.4-8.5,5.4-8.5l3.9,1.7l1.4,0.4c1.3,0.5,2.7,2,3.6,3.2
				l2.4,0.9c-0.4-0.1-0.7-0.3-0.9-0.6c-0.5-0.6-0.7-1.4-0.4-2.1c0.3-0.5,1.4-0.9,2.2-1.1c0.4-0.1,0.8,0.7,0.8,0.7l-0.4-1.3l-2.3-1.2
				c-1.4-0.7-2.9-1.8-3.3-3.3l-2.1-3.6l-1-1.3l-3.2-4.3c0,0-0.1-5.9-2.4-7.4c-2.8-1.7-8.6-9.6-8.6-9.6L339.4,212.7z"/>
			<path d="M343.2,207.9c-0.6,1.3,1.4-4.1,1.2-5.5c-0.1-1.2-2.7-5.3-3.6-5.4c-1.6-0.2-3-1-6.8,0.5c-0.9,0.5-1.8,1.2-2.5,2
				c-1.2,2.2-2.1,4.5-2.6,7c-0.1,1.1,0.6,2.6,0.8,3.8c0.2,1.1,0.9,2,2,2.4l1.1,0.3c1.3,0.4,2.8,0.5,4.1,0.1l0,0
				C340.9,212.2,343.6,207.1,343.2,207.9z"/>
			<path d="M328.8,213.6l-0.4,2.9l-4.4,1.2c0,0-1.9,4.7-16.5,11.3l-1.6,6l5.6,0.2c0,0,15.5-11.7,16-14.7l1.1-3.8l3.5-1.2
				c0.1,0,0.1-0.1,0.1-0.2c0,0,0-0.1-0.1-0.1l-3.2-1.7C328.9,213.5,328.8,213.5,328.8,213.6C328.8,213.6,328.8,213.6,328.8,213.6
				L328.8,213.6z"/>
			<path class="st35" d="M59.8,236.3h-8.1v3.7c0.4-0.4,0.9-0.8,1.5-0.9c0.7-0.2,1.4-0.4,2.1-0.4c1.1,0,2.1,0.3,3,0.8
				c0.8,0.5,1.4,1.3,1.8,2.1c0.4,0.9,0.6,2,0.6,3c0.1,1.7-0.5,3.4-1.6,4.6c-1.2,1.2-2.9,1.8-4.7,1.7c-1.2,0-2.4-0.2-3.5-0.7
				c-0.9-0.4-1.8-1.1-2.3-2c-0.6-0.9-0.8-1.9-0.9-3h4.3c0.1,0.5,0.3,1,0.7,1.4c0.4,0.4,1,0.6,1.6,0.6c0.7,0.1,1.3-0.2,1.7-0.7
				c0.4-0.6,0.6-1.3,0.6-2c0-0.7-0.2-1.3-0.6-1.8c-0.5-0.4-1.1-0.7-1.7-0.6c-0.5,0-1,0.1-1.4,0.4c-0.4,0.2-0.6,0.6-0.8,1h-4.2v-10.9
				h12L59.8,236.3z"/>
			<path class="st35" d="M70.7,238.3c0-1.4-0.6-2.1-1.8-2.1c-0.6,0-1.2,0.2-1.5,0.7c-0.4,0.7-0.5,1.4-0.5,2.2h-4.3
				c0-1.8,0.7-3.6,2-4.9c1.3-1.1,2.9-1.7,4.6-1.7c1.6-0.1,3.2,0.4,4.4,1.4c1,1,1.5,2.4,1.5,3.8c0,1.9-0.8,3.7-2,5.1
				c-1.3,1.7-3,3.1-4.8,4.2h7.1v3.5H62.7v-3.3C68,243.6,70.7,240.6,70.7,238.3z"/>
			<path class="st35" d="M77.3,241.8c-0.1-2.3,0.5-4.7,1.8-6.6c1.1-1.6,3-2.5,5.4-2.5c2.1-0.2,4.2,0.8,5.4,2.5
				c2.3,4.2,2.3,9.2,0,13.3c-1.3,1.7-3.3,2.6-5.4,2.5c-2.5,0-4.3-0.8-5.4-2.5C77.7,246.5,77.1,244.1,77.3,241.8z M87.3,241.8
				c0.1-1.3-0.1-2.5-0.6-3.7c-0.4-0.9-1.3-1.4-2.3-1.3c-1-0.1-1.9,0.4-2.3,1.3c-0.4,1.2-0.6,2.4-0.6,3.7c-0.1,1.3,0.1,2.5,0.6,3.7
				c0.4,0.9,1.3,1.4,2.3,1.3c1,0.1,1.9-0.4,2.3-1.3C87.1,244.3,87.3,243,87.3,241.8L87.3,241.8z"/>
			<path class="st36" d="M193.3,143.7c-0.4-0.4-0.9-0.7-1.5-0.8c-0.9-0.2-1.7,0.2-2.1,1c-0.5,1.3-0.7,2.7-0.6,4.1
				c0.3-0.7,0.8-1.2,1.5-1.4c0.8-0.3,1.6-0.4,2.4-0.2c1.6,0.2,3,1,4,2.2c1,1.3,1.6,3,1.5,4.6c0,1.1-0.2,2.1-0.7,3.1
				c-0.5,0.8-1.3,1.5-2.2,1.8c-1.1,0.4-2.3,0.5-3.4,0.2c-2.6-0.4-4.4-1.5-5.4-3.3c-1.1-2.2-1.6-4.6-1.5-7c0-3.3,0.5-5.7,1.6-7.1
				c1.1-1.4,2.8-1.9,5.2-1.5c1.7,0.2,3.2,1,4.3,2.3c1,1.2,1.6,2.8,1.7,4.3l-4.1-0.6C193.9,144.8,193.7,144.2,193.3,143.7z
				 M190.1,153.6c0.5,0.6,1.2,0.9,1.9,1c0.6,0.1,1.3,0,1.8-0.4c0.5-0.5,0.7-1.1,0.6-1.8c0-0.7-0.2-1.4-0.7-2
				c-0.5-0.5-1.1-0.9-1.8-0.9c-0.6-0.1-1.3,0-1.8,0.3c-0.5,0.4-0.8,1-0.7,1.7C189.4,152.2,189.7,152.9,190.1,153.6L190.1,153.6z"/>
			<path class="st36" d="M202.2,143.4c0.5-0.7,1.3-1.3,2.2-1.5c1.2-0.3,2.4-0.4,3.6-0.1c1.3,0.2,2.5,0.6,3.6,1.3
				c0.9,0.5,1.6,1.3,2.2,2.2c0.5,0.8,0.7,1.7,0.7,2.6c0,0.8-0.2,1.6-0.7,2.3c-0.5,0.6-1.2,1.1-1.9,1.2c1.9,1,3,2.9,3,5
				c0,1.1-0.3,2.1-0.9,3c-0.6,0.8-1.5,1.3-2.5,1.6c-1.2,0.3-2.4,0.3-3.5,0.1c-1.2-0.2-2.4-0.6-3.5-1.2c-1-0.6-1.9-1.4-2.5-2.4
				c-0.6-1-0.9-2.1-0.9-3.3c-0.2-1.9,1.1-3.7,3-4.1c-0.8-0.4-1.5-1.1-1.9-1.8c-0.5-0.8-0.7-1.6-0.7-2.5
				C201.4,144.8,201.7,144,202.2,143.4z M206,156.5c0.5,0.6,1.2,0.9,2,1c0.7,0.2,1.4,0,2-0.4c0.5-0.4,0.8-1,0.7-1.7
				c0-0.7-0.3-1.4-0.8-1.9c-0.5-0.5-1.2-0.9-1.9-0.9c-0.7-0.2-1.4,0-1.9,0.3c-0.5,0.4-0.8,1-0.8,1.7
				C205.3,155.3,205.6,156,206,156.5L206,156.5z M206.4,148.8c0.4,0.4,1,0.7,1.6,0.8c0.6,0.1,1.1,0,1.6-0.3c0.4-0.4,0.7-0.9,0.6-1.5
				c0-0.6-0.2-1.2-0.6-1.7c-0.4-0.5-1-0.8-1.6-0.8c-0.6-0.1-1.1,0-1.6,0.3c-0.4,0.4-0.7,0.9-0.6,1.5
				C205.7,147.7,205.9,148.3,206.4,148.8L206.4,148.8z"/>
			<path class="st36" d="M217.3,153c0-2.8,0.6-4.9,1.7-6.4c1.1-1.5,2.9-2,5.4-1.6c2.2,0.2,4.2,1.5,5.4,3.3c1.2,2.1,1.8,4.5,1.7,6.9
				c0,2.8-0.6,5-1.7,6.4c-1.1,1.5-3,2-5.4,1.6c-2.2-0.2-4.2-1.5-5.4-3.3C217.8,157.8,217.2,155.4,217.3,153z M227.3,154.6
				c0-1.3-0.1-2.6-0.6-3.8c-0.4-0.9-1.3-1.6-2.3-1.6c-0.9-0.3-1.9,0.1-2.3,0.9c-0.5,1.1-0.6,2.4-0.6,3.6c0,1.3,0.1,2.6,0.6,3.8
				c0.4,0.9,1.3,1.6,2.3,1.7c0.9,0.3,1.9-0.2,2.3-1C227.1,157,227.3,155.8,227.3,154.6L227.3,154.6z"/>
			<path class="st37" d="M252.4,121.4l-6.4,13.9l-4.5-0.7l6.5-13.4l-7.6-1.2v-3.7l12.1,1.9V121.4z"/>
			<path class="st37" d="M253.9,127.4c0-2.8,0.6-4.9,1.7-6.4c1.1-1.5,3-2,5.5-1.6c2.2,0.2,4.2,1.5,5.4,3.3c1.2,2.1,1.8,4.5,1.7,6.9
				c0,2.8-0.6,5-1.7,6.4s-3,2-5.4,1.6c-2.2-0.2-4.2-1.5-5.4-3.3C254.4,132.2,253.8,129.8,253.9,127.4z M263.9,128.9
				c0.1-1.3-0.1-2.6-0.6-3.8c-0.4-0.9-1.3-1.6-2.3-1.6c-0.9-0.3-1.9,0.1-2.3,0.9c-0.5,1.1-0.7,2.4-0.6,3.6c0,1.3,0.2,2.6,0.6,3.8
				c0.4,0.9,1.3,1.6,2.3,1.7c0.9,0.3,1.8-0.1,2.3-0.9C263.7,131.4,263.9,130.2,263.9,128.9L263.9,128.9z"/>
			<path class="st37" d="M270.3,130c0-2.8,0.6-4.9,1.7-6.4c1.1-1.4,3-2,5.4-1.6c2.2,0.2,4.2,1.5,5.4,3.3c1.2,2.1,1.8,4.5,1.7,6.9
				c0,2.8-0.6,5-1.7,6.4c-1.1,1.5-3,2-5.4,1.6c-2.2-0.2-4.2-1.5-5.4-3.3C270.8,134.8,270.2,132.4,270.3,130z M280.3,131.6
				c0-1.3-0.1-2.6-0.6-3.8c-0.4-0.9-1.3-1.6-2.3-1.6c-0.9-0.3-1.9,0.1-2.3,0.9c-0.5,1.1-0.6,2.4-0.6,3.6c-0.1,1.3,0.1,2.6,0.6,3.8
				c0.4,0.9,1.3,1.6,2.3,1.7c0.9,0.3,1.8-0.1,2.3-0.9C280.1,134,280.3,132.8,280.3,131.6L280.3,131.6z"/>
			<path class="st38" d="M322.2,91.7l-8.4,17.5l-5.9-1.3l8.5-16.8l-9.9-2.3v-4.8l15.7,3.6V91.7z"/>
			<path class="st38" d="M334.4,97.5c0-1.8-0.8-2.9-2.4-3.3c-0.7-0.3-1.4-0.1-1.9,0.5c-0.5,0.8-0.7,1.8-0.7,2.7l-5.5-1.3
				c0.1-2.8,1-4.8,2.6-5.8c1.8-1.1,4-1.4,6-0.8c2.2,0.4,4.2,1.6,5.7,3.3c2.8,3.4,2.5,8.4-0.7,11.5c-1.8,1.8-3.9,3.2-6.3,4.1l9.2,2.1
				v4.6l-16.7-3.8V107C330.9,103.6,334.4,100.5,334.4,97.5z"/>
			<path class="st38" d="M342.9,104c0-3.6,0.7-6.4,2.2-8.1s3.8-2.3,7.1-1.6c2.9,0.5,5.5,2.3,7.1,4.8c1.6,2.8,2.3,6,2.2,9.2
				c0,3.7-0.7,6.4-2.2,8.2c-1.5,1.8-3.8,2.3-7.1,1.5c-2.9-0.5-5.5-2.3-7.1-4.8C343.6,110.4,342.8,107.2,342.9,104z M355.9,107
				c0.1-1.7-0.2-3.4-0.8-5c-0.5-1.2-1.6-2.1-2.9-2.3c-1.5-0.3-2.5,0-3,1c-0.6,1.5-0.8,3-0.8,4.6c-0.1,1.7,0.2,3.4,0.8,5
				c0.5,1.3,1.7,2.2,3,2.4c1.5,0.3,2.4,0,2.9-1C355.7,110.2,356,108.6,355.9,107L355.9,107z"/>
		</g>
		<g id="arrow">
			<polyline class="st39" points="37.7,292.5 226.9,173.1 237.9,186.6 270.5,140.3 306.8,142.9 320.7,124.6 324.1,124.7 
				307.8,147.5 273.3,143.9 238.2,202.4 224.4,183.1 80.1,293.3 			"/>
			<polygon class="st40" points="79.4,291.5 224.2,182.7 224.6,182.4 224.8,182.8 238.6,202 237.9,202 273.2,143.8 273.3,143.6 
				273.4,143.7 307.8,147.4 307.7,147.4 324.1,124.7 307.8,147.6 307.8,147.6 307.8,147.6 273.4,144 273.5,143.9 238.6,202.4 
				238.3,202.9 237.9,202.5 224.1,183.3 224.7,183.4 80.6,293.1 			"/>
			<polygon class="st40" points="80.7,293.3 44.4,292.6 80.7,291.3 			"/>
			<polyline class="st39" points="326.6,118 335,127.1 311.1,123.9 			"/>
		</g>
		<g id="text">
			<path d="M113.5,0.3v3.6h-7.6v4.1h5.9v3.4h-5.9v7.5h-4.5V0.3H113.5z"/>
			<path d="M125.4,18.9l-4-7h-1v7h-4.5V0.3h7.7c1.3,0,2.6,0.2,3.7,0.8c1,0.5,1.8,1.2,2.3,2.1c0.5,0.9,0.8,2,0.8,3
				c0,1.2-0.4,2.5-1.1,3.4c-0.8,1-2,1.7-3.2,2l4.4,7.3L125.4,18.9z M120.4,8.8h2.8c0.7,0.1,1.4-0.1,2-0.6c0.4-0.5,0.7-1.1,0.6-1.8
				c0-0.6-0.2-1.3-0.7-1.7c-0.6-0.5-1.3-0.7-2-0.6h-2.8L120.4,8.8z"/>
			<path d="M137.1,3.9v3.9h6.3v3.4h-6.3v4.1h7.1v3.6h-11.6V0.3h11.6v3.6H137.1z"/>
			<path d="M151.2,3.9v3.9h6.3v3.4h-6.3v4.1h7.1v3.6h-11.6V0.3h11.6v3.6H151.2z"/>
			<path d="M170.6,12.4v6.5h-4.5V0.3h7.3c1.8-0.1,3.6,0.5,5,1.6c1.2,1.2,1.8,2.8,1.7,4.4c0,1.1-0.2,2.1-0.8,3.1
				c-0.5,0.9-1.3,1.7-2.3,2.1c-1.2,0.5-2.4,0.8-3.7,0.8H170.6z M175.6,6.4c0-1.6-0.9-2.4-2.7-2.4h-2.3v4.8h2.3
				C174.6,8.8,175.5,8,175.6,6.4L175.6,6.4z"/>
			<path d="M191.9,18.9l-4-7h-1v7h-4.5V0.3h7.6c1.3,0,2.6,0.2,3.7,0.8c0.9,0.5,1.7,1.2,2.3,2.1c0.5,0.9,0.8,2,0.8,3
				c0,1.2-0.4,2.5-1.1,3.4c-0.8,1-2,1.7-3.3,2l4.4,7.3L191.9,18.9z M186.8,8.8h2.8c0.7,0.1,1.4-0.1,2-0.6c0.5-0.5,0.7-1.1,0.6-1.8
				c0-0.6-0.2-1.3-0.6-1.7c-0.6-0.5-1.3-0.7-2-0.6h-2.8L186.8,8.8z"/>
			<path d="M212.6,1.2c1.4,0.8,2.6,2,3.4,3.4c0.8,1.5,1.3,3.2,1.2,4.9c0,1.7-0.4,3.4-1.2,4.9c-0.8,1.4-2,2.6-3.4,3.4
				c-3,1.6-6.5,1.6-9.5,0c-1.4-0.8-2.6-2-3.4-3.4c-0.8-1.5-1.3-3.2-1.3-4.9c0-1.7,0.4-3.4,1.3-4.9c0.8-1.4,2-2.6,3.4-3.4
				C206.1-0.4,209.7-0.4,212.6,1.2L212.6,1.2z M204.4,5.6c-0.9,1.1-1.4,2.5-1.3,3.9c-0.1,1.4,0.4,2.8,1.3,3.9c1.9,1.9,5.1,1.9,7,0
				c0.9-1.1,1.4-2.5,1.3-3.9c0.1-1.4-0.4-2.8-1.3-3.9C209.4,3.7,206.3,3.7,204.4,5.6z"/>
			<path d="M234.3,1.8c1.5,1.1,2.5,2.8,2.8,4.6h-4.8c-0.3-0.7-0.8-1.2-1.4-1.6c-0.7-0.4-1.5-0.6-2.3-0.6c-1.3-0.1-2.5,0.5-3.4,1.4
				c-0.9,1.1-1.4,2.5-1.3,3.9c-0.1,1.5,0.4,2.9,1.4,4.1c1,1,2.4,1.5,3.8,1.4c2.1,0.1,4-1.3,4.5-3.4h-5.7V8.4h9.4v4.4
				c-0.4,1.1-0.9,2.1-1.7,3c-0.8,1-1.8,1.7-3,2.3c-1.3,0.6-2.7,0.9-4.1,0.9c-1.7,0-3.4-0.4-4.9-1.2c-1.4-0.8-2.5-1.9-3.3-3.4
				c-0.8-1.5-1.2-3.2-1.1-4.9c0-1.7,0.4-3.4,1.1-4.9c0.7-1.4,1.9-2.6,3.2-3.3c1.5-0.8,3.2-1.2,4.9-1.2C230.5,0,232.6,0.6,234.3,1.8z
				"/>
			<path d="M249.4,18.9l-4-7h-1v7h-4.5V0.3h7.7c1.3,0,2.6,0.2,3.7,0.8c1,0.5,1.8,1.2,2.3,2.1c0.5,0.9,0.8,2,0.8,3
				c0,1.2-0.4,2.5-1.1,3.4c-0.8,1-2,1.7-3.2,2l4.4,7.3L249.4,18.9z M244.4,8.8h2.8c0.7,0.1,1.4-0.1,2-0.6c0.4-0.5,0.7-1.1,0.6-1.8
				c0-0.6-0.2-1.3-0.6-1.7c-0.6-0.5-1.3-0.7-2-0.6h-2.8L244.4,8.8z"/>
			<path d="M268.1,15.5h-7l-1.2,3.4h-4.7L262,0.4h5.2l6.8,18.5h-4.8L268.1,15.5z M266.9,12.1l-2.3-6.8l-2.3,6.8H266.9z"/>
			<path d="M296.6,0.4v18.5h-4.5V7.3l-4,11.6h-3.9l-4-11.6v11.6h-4.5V0.4h5.5l5,12.9l4.9-12.9H296.6z"/>
			<path d="M88.6,50.4l-4-7h-1v7h-4.5V31.8h7.7c1.3,0,2.6,0.2,3.7,0.8c1,0.5,1.8,1.2,2.3,2.1c0.5,0.9,0.8,2,0.8,3
				c0,1.2-0.4,2.5-1.1,3.4c-0.8,1-2,1.7-3.3,2l4.4,7.3L88.6,50.4z M83.6,40.3h2.8c0.7,0.1,1.4-0.1,2-0.6c0.4-0.5,0.6-1.1,0.6-1.7
				c0-0.6-0.2-1.3-0.6-1.7c-0.6-0.5-1.3-0.7-2-0.6h-2.7L83.6,40.3z"/>
			<path d="M107.3,47h-7l-1.2,3.4h-4.7l6.8-18.4h5.2l6.8,18.5h-4.8L107.3,47z M106.1,43.6l-2.3-6.8l-2.3,6.8H106.1z"/>
			<path d="M119.5,31.8v18.6H115V31.8H119.5z"/>
			<path d="M135.2,47.9c-0.5,0.9-1.3,1.6-2.2,2c-1.1,0.5-2.3,0.8-3.5,0.7c-1.8,0.1-3.7-0.5-5.2-1.5c-1.3-1-2.2-2.6-2.2-4.3h4.8
				c0,0.6,0.3,1.2,0.8,1.7c0.4,0.4,1,0.6,1.6,0.6c0.5,0,1-0.1,1.4-0.5c0.3-0.3,0.5-0.8,0.5-1.3c0-0.4-0.1-0.9-0.5-1.2
				c-0.3-0.3-0.7-0.6-1.1-0.8c-0.5-0.2-1.1-0.4-1.9-0.7c-1-0.3-1.9-0.7-2.9-1.2c-0.8-0.4-1.4-1-1.9-1.7c-1.1-1.8-1.1-4,0-5.8
				c0.6-0.8,1.4-1.5,2.3-1.9c1.1-0.4,2.2-0.7,3.4-0.6c1.8-0.1,3.5,0.4,5,1.4c1.2,1,2,2.4,2.1,4h-4.9c-0.1-0.5-0.3-1.1-0.7-1.5
				c-0.4-0.4-0.9-0.6-1.5-0.5c-0.5,0-0.9,0.1-1.3,0.4c-0.3,0.3-0.5,0.8-0.5,1.2c0,0.4,0.1,0.8,0.4,1.1c0.3,0.3,0.7,0.6,1.1,0.8
				c0.4,0.2,1.1,0.4,1.9,0.7c1,0.3,2,0.7,2.9,1.2c0.8,0.4,1.5,1,2,1.7c0.6,0.9,0.9,1.9,0.8,2.9C136,46.1,135.7,47.1,135.2,47.9z"/>
			<path d="M142.9,35.4v3.9h6.3v3.4h-6.3v4.1h7.1v3.6h-11.6V31.8H150v3.6H142.9z"/>
			<path d="M173.9,31.8l-6.4,12.4v6.2h-4.5v-6.2l-6.4-12.4h5.1l3.6,7.6l3.6-7.6H173.9z"/>
			<path d="M189.2,32.8c1.4,0.8,2.6,2,3.4,3.4c1.7,3.1,1.7,6.8,0,9.8c-0.8,1.4-2,2.6-3.4,3.4c-3,1.6-6.5,1.6-9.5,0
				c-1.4-0.8-2.6-2-3.4-3.4c-1.7-3.1-1.7-6.8,0-9.8c0.8-1.4,2-2.6,3.4-3.4C182.6,31.2,186.2,31.1,189.2,32.8z M180.9,37.2
				c-0.9,1.1-1.4,2.5-1.3,3.9c-0.1,1.4,0.4,2.8,1.3,3.9c1.9,1.9,5.1,1.9,7,0c0.9-1.1,1.4-2.5,1.3-3.9c0.1-1.4-0.4-2.8-1.3-3.9
				C186,35.3,182.9,35.3,180.9,37.2L180.9,37.2z"/>
			<path d="M200.7,31.8v10.7c-0.1,1,0.2,2,0.8,2.8c1.3,1.3,3.5,1.3,4.8,0c0.6-0.8,0.9-1.8,0.8-2.8V31.8h4.5v10.7
				c0.1,1.5-0.3,3.1-1,4.4c-0.6,1.2-1.6,2.1-2.8,2.7c-1.2,0.6-2.6,0.9-4,0.9c-1.4,0-2.7-0.3-3.9-0.9c-1.2-0.6-2.1-1.5-2.7-2.7
				c-0.7-1.4-1-2.9-1-4.5V31.8H200.7z"/>
			<path d="M224.2,50.4l-4-7h-1v7h-4.5V31.8h7.7c1.3,0,2.6,0.2,3.7,0.8c1,0.5,1.8,1.2,2.3,2.1c0.5,0.9,0.8,2,0.8,3
				c0,1.3-0.4,2.5-1.2,3.5c-0.8,1-2,1.7-3.2,2l4.4,7.3H224.2z M219.2,40.3h2.8c0.7,0.1,1.4-0.1,2-0.6c0.4-0.5,0.7-1.1,0.6-1.8
				c0-0.6-0.2-1.3-0.6-1.7c-0.6-0.5-1.3-0.7-2-0.6h-2.8L219.2,40.3z"/>
			<path d="M247.4,47.9c-0.5,0.9-1.3,1.6-2.2,2c-1.1,0.5-2.3,0.8-3.5,0.7c-1.8,0.1-3.7-0.5-5.1-1.5c-1.3-1-2.2-2.6-2.2-4.3h4.7
				c0,0.6,0.3,1.2,0.8,1.7c0.4,0.4,1,0.6,1.6,0.6c0.5,0,1-0.1,1.4-0.5c0.3-0.3,0.5-0.8,0.5-1.3c0-0.4-0.1-0.9-0.5-1.2
				c-0.3-0.3-0.7-0.6-1.1-0.8c-0.5-0.2-1.1-0.4-1.9-0.7c-1-0.3-1.9-0.7-2.9-1.2c-0.8-0.4-1.4-1-1.9-1.7c-1.1-1.8-1.1-4,0-5.8
				c0.6-0.8,1.4-1.5,2.3-1.9c1.1-0.4,2.2-0.7,3.4-0.6c1.8-0.1,3.5,0.4,5,1.5c1.2,1,2,2.4,2.1,4h-4.9c-0.1-0.5-0.3-1.1-0.7-1.5
				c-0.4-0.4-0.9-0.6-1.5-0.5c-0.5,0-0.9,0.1-1.3,0.4c-0.3,0.3-0.5,0.8-0.5,1.2c0,0.4,0.1,0.8,0.4,1.1c0.3,0.3,0.7,0.6,1.1,0.8
				c0.4,0.2,1.1,0.4,1.9,0.7c1,0.3,2,0.7,2.9,1.2c0.8,0.4,1.4,1,1.9,1.7c0.6,0.9,0.9,1.9,0.8,2.9C248.1,46.1,247.9,47.1,247.4,47.9z
				"/>
			<path d="M265,33.5c1.6,1.3,2.6,3,3,5h-4.8c-0.3-0.8-0.9-1.5-1.6-2c-0.8-0.5-1.7-0.8-2.6-0.7c-1.2,0-2.4,0.5-3.2,1.4
				c-0.9,1.1-1.3,2.5-1.2,3.9c-0.1,1.4,0.3,2.8,1.2,3.9c0.8,0.9,2,1.4,3.2,1.4c0.9,0,1.8-0.2,2.6-0.7c0.7-0.5,1.3-1.2,1.6-2h4.8
				c-0.4,2-1.4,3.7-3,5c-1.7,1.3-3.8,2-5.9,1.9c-1.7,0-3.3-0.4-4.8-1.2c-1.4-0.8-2.5-2-3.2-3.4c-1.5-3.1-1.5-6.7,0-9.8
				c0.7-1.4,1.8-2.6,3.2-3.3c1.4-0.8,3.1-1.2,4.8-1.2C261.2,31.5,263.3,32.2,265,33.5z"/>
			<path d="M284.1,32.8c1.4,0.8,2.6,2,3.4,3.4c1.7,3.1,1.7,6.8,0,9.8c-0.8,1.4-2,2.6-3.4,3.4c-3,1.6-6.5,1.6-9.5,0
				c-1.4-0.8-2.6-2-3.4-3.4c-1.7-3.1-1.7-6.8,0-9.8c0.8-1.4,2-2.6,3.4-3.4C277.6,31.2,281.1,31.1,284.1,32.8z M275.8,37.2
				c-0.9,1.1-1.4,2.5-1.3,3.9c-0.1,1.4,0.4,2.8,1.3,3.9c1.9,1.9,5.1,1.9,7,0c0.9-1.1,1.4-2.5,1.3-3.9c0.1-1.4-0.4-2.8-1.3-3.9
				C280.9,35.2,277.8,35.2,275.8,37.2z"/>
			<path d="M300.8,50.4l-4-7h-1v7h-4.5V31.8h7.7c1.3,0,2.6,0.2,3.7,0.8c1,0.4,1.8,1.2,2.3,2.1c0.5,0.9,0.8,2,0.8,3
				c0,1.2-0.4,2.5-1.1,3.4c-0.8,1-2,1.7-3.3,2l4.4,7.3L300.8,50.4z M295.7,40.3h2.8c0.7,0.1,1.4-0.1,2-0.6c0.4-0.5,0.7-1.1,0.6-1.8
				c0-0.6-0.2-1.3-0.6-1.7c-0.6-0.5-1.3-0.7-2-0.6h-2.8L295.7,40.3z"/>
			<path d="M312.5,35.4v3.9h6.3v3.4h-6.3v4.1h7.1v3.6H308V31.8h11.6v3.6H312.5z"/>
			<path d="M37.6,361.3h-7l-1.2,3.4h-4.7l6.8-18.5h5.2l6.8,18.5h-4.8L37.6,361.3z M36.5,357.9l-2.3-6.8l-2.3,6.8H36.5z"/>
			<path d="M55.1,351.3c1.1,0.9,1.9,2.2,2.1,3.7H53c-0.1-0.6-0.4-1.1-0.8-1.4c-0.5-0.4-1-0.5-1.6-0.5c-0.4,0-0.8,0.1-1.2,0.3
				c-0.3,0.2-0.4,0.6-0.4,0.9c0,0.5,0.3,0.8,0.7,1c0.7,0.3,1.5,0.6,2.3,0.7c0.9,0.2,1.9,0.5,2.8,0.8c0.7,0.3,1.4,0.7,1.9,1.3
				c0.6,0.7,0.8,1.6,0.8,2.5c0,0.8-0.2,1.6-0.7,2.2c-0.5,0.7-1.2,1.2-2,1.5c-1,0.4-2,0.6-3,0.5c-1.7,0.1-3.4-0.4-4.8-1.3
				c-1.2-0.9-2-2.3-2.2-3.8h4.3c0,0.6,0.3,1.1,0.8,1.5c0.5,0.3,1.2,0.5,1.8,0.5c0.4,0,0.8-0.1,1.2-0.4c0.3-0.2,0.4-0.6,0.4-0.9
				c0-0.5-0.3-0.9-0.7-1.1c-0.8-0.3-1.5-0.5-2.3-0.7c-0.9-0.2-1.8-0.4-2.7-0.7c-0.7-0.3-1.3-0.7-1.8-1.3c-0.5-0.7-0.8-1.5-0.8-2.4
				c0-1.2,0.5-2.4,1.5-3.2c1.2-0.9,2.7-1.3,4.2-1.2C52.3,349.8,53.8,350.3,55.1,351.3z"/>
			<path d="M68.8,364.7l-4.4-6.2v6.2h-4.5v-19.5h4.5v10.7l4.4-5.9H74l-5.9,7.3l6.1,7.3L68.8,364.7z"/>
			<path d="M92.6,361.3h-7l-1.2,3.4h-4.7l6.8-18.5h5.2l6.8,18.5h-4.8L92.6,361.3z M91.4,357.9l-2.3-6.8l-2.3,6.8H91.4z"/>
			<path d="M112.7,350.8c1,0.6,1.8,1.5,2.3,2.6c1.1,2.6,1.1,5.4,0,8c-0.5,1.1-1.3,2-2.3,2.6c-1,0.6-2.1,0.9-3.3,0.9
				c-1,0-2-0.2-2.9-0.8c-0.8-0.5-1.4-1.2-1.8-2.1v2.6h-4.5v-19.4h4.5v7.4c0.4-0.9,1-1.6,1.8-2.1c0.9-0.5,1.9-0.8,2.9-0.8
				C110.5,349.8,111.7,350.2,112.7,350.8z M105.7,354.8c-1.2,1.5-1.2,3.7,0,5.2c1.3,1.3,3.4,1.3,4.7,0c1.2-1.6,1.2-3.7,0-5.3
				c-0.6-0.6-1.4-1-2.3-1C107.1,353.8,106.2,354.1,105.7,354.8L105.7,354.8z"/>
			<path d="M128.9,350.8c1.1,0.6,2.1,1.5,2.7,2.6c1.3,2.5,1.3,5.5,0,8c-0.6,1.1-1.6,2-2.7,2.6c-2.5,1.2-5.4,1.2-7.8,0
				c-1.1-0.6-2.1-1.5-2.7-2.6c-1.3-2.5-1.3-5.5,0-8c0.6-1.1,1.6-2,2.7-2.6C123.5,349.6,126.4,349.6,128.9,350.8z M122.8,354.7
				c-1.2,1.6-1.2,3.8,0,5.4c0.6,0.6,1.3,0.9,2.2,0.9c0.8,0,1.6-0.3,2.2-0.9c0.6-0.7,0.9-1.7,0.9-2.7c0.1-1-0.2-1.9-0.9-2.7
				c-0.6-0.6-1.3-0.9-2.2-0.9C124.1,353.7,123.3,354.1,122.8,354.7z"/>
			<path d="M149.5,350v14.7H145v-2.6c-0.4,0.8-1.1,1.6-1.9,2c-0.9,0.5-1.9,0.8-2.9,0.8c-1.5,0.1-3-0.6-4-1.7c-1.1-1.3-1.6-3-1.5-4.6
				v-8.5h4.5v8c-0.1,0.8,0.2,1.7,0.8,2.3c0.5,0.6,1.3,0.9,2.1,0.8c0.8,0,1.6-0.3,2.2-0.9c0.6-0.7,0.8-1.6,0.8-2.5v-7.8L149.5,350z"
				/>
			<path d="M160.9,360.9v3.9h-2c-1.4,0.1-2.9-0.4-4-1.3c-1-0.9-1.4-2.3-1.4-4.2v-5.4h-2V350h2v-3.6h4.5v3.6h2.9v3.8h-2.9v5.5
				c0,0.4,0.1,0.9,0.4,1.2c0.3,0.3,0.8,0.4,1.2,0.4L160.9,360.9z"/>
			<path d="M182.3,347.1c1.4,0.8,2.6,2,3.4,3.4c1.7,3.1,1.7,6.8,0,9.8c-0.8,1.4-2,2.6-3.4,3.4c-3,1.6-6.5,1.6-9.5,0
				c-1.4-0.8-2.6-2-3.4-3.4c-1.7-3.1-1.7-6.8,0-9.8c0.8-1.4,2-2.6,3.4-3.4C175.7,345.4,179.3,345.4,182.3,347.1z M174,351.5
				c-1.7,2.3-1.7,5.5,0,7.8c1.9,1.9,5.1,1.9,7,0c1.7-2.3,1.7-5.5,0-7.8C179.1,349.6,175.9,349.6,174,351.5z"/>
			<path d="M204,350v14.7h-4.5v-2.6c-0.4,0.9-1.1,1.6-1.9,2c-0.9,0.5-1.9,0.8-2.9,0.8c-1.5,0.1-3-0.6-4-1.7c-1-1.3-1.6-3-1.5-4.6
				v-8.5h4.5v8c0,0.8,0.2,1.7,0.8,2.3c0.5,0.6,1.3,0.9,2.1,0.8c0.8,0,1.6-0.3,2.1-0.9c0.6-0.7,0.9-1.6,0.8-2.5v-7.8L204,350z"/>
			<path d="M213.8,350.7c0.9-0.5,1.9-0.8,2.9-0.8v4.8h-1.3c-1-0.1-2,0.2-2.8,0.8c-0.7,0.6-1.1,1.6-1,2.6v6.7h-4.5V350h4.5v2.8
				C212.1,351.9,212.9,351.2,213.8,350.7z"/>
			<path d="M300.9,349.3l-6.6,15.4h-4.6l6.7-14.9h-7.9V346H301L300.9,349.3z"/>
			<path d="M235.6,346.1v3.6H228v4.1h5.9v3.4H228v7.5h-4.5v-18.6H235.6z"/>
			<path d="M247.4,364.7l-4-7h-1v7H238v-18.6h7.7c1.3,0,2.6,0.2,3.7,0.8c1,0.5,1.7,1.2,2.3,2.1c0.5,0.9,0.8,1.9,0.8,3
				c0,1.2-0.4,2.5-1.1,3.5c-0.8,1-2,1.7-3.3,1.9l4.4,7.3L247.4,364.7z M242.4,354.6h2.8c0.7,0.1,1.4-0.1,2-0.6
				c0.4-0.5,0.7-1.1,0.6-1.7c0-0.6-0.2-1.3-0.6-1.7c-0.6-0.5-1.3-0.7-2-0.6h-2.8L242.4,354.6z"/>
			<path d="M259.1,349.7v3.9h6.3v3.4h-6.3v4.1h7.1v3.6h-11.6v-18.6h11.6v3.6H259.1z"/>
			<path d="M273.2,349.7v3.9h6.3v3.4h-6.3v4.1h7.1v3.6h-11.6v-18.6h11.6v3.6H273.2z"/>
			<path d="M319.7,362.2c-0.5,0.9-1.3,1.6-2.2,2c-1.1,0.5-2.3,0.8-3.5,0.7c-1.8,0.1-3.6-0.5-5.1-1.5c-1.3-1-2.2-2.6-2.2-4.3h4.8
				c0,0.6,0.3,1.2,0.8,1.7c0.4,0.4,1,0.6,1.6,0.6c0.5,0,1-0.1,1.4-0.5c0.6-0.7,0.6-1.8,0-2.5c-0.3-0.3-0.7-0.6-1.1-0.8
				c-0.5-0.2-1.1-0.4-1.9-0.7c-1-0.3-1.9-0.7-2.9-1.2c-0.8-0.4-1.4-1-1.9-1.7c-1.1-1.8-1.1-4,0-5.8c0.6-0.8,1.4-1.5,2.3-1.9
				c1.1-0.5,2.2-0.7,3.4-0.6c1.8-0.1,3.5,0.4,4.9,1.5c1.2,1,2,2.5,2.1,4h-4.9c-0.1-0.5-0.3-1.1-0.7-1.5c-0.4-0.4-0.9-0.6-1.5-0.5
				c-0.5,0-0.9,0.1-1.3,0.4c-0.3,0.3-0.5,0.8-0.5,1.2c0,0.4,0.1,0.8,0.4,1.1c0.3,0.3,0.7,0.6,1.1,0.8c0.4,0.2,1.1,0.4,1.9,0.7
				c1,0.3,2,0.7,2.9,1.2c0.8,0.4,1.4,1,2,1.7c0.6,0.9,0.9,1.9,0.8,3C320.4,360.5,320.2,361.4,319.7,362.2z"/>
			<path d="M331.3,360.9v3.9h-2c-1.4,0.1-2.9-0.4-4-1.3c-1-0.9-1.4-2.3-1.4-4.2v-5.4h-2V350h2v-3.6h4.5v3.6h2.9v3.8h-2.9v5.5
				c0,0.4,0.1,0.9,0.4,1.2c0.3,0.3,0.8,0.4,1.2,0.4L331.3,360.9z"/>
			<path d="M347.6,358.2h-10.2c0,0.9,0.3,1.7,0.8,2.4c0.5,0.5,1.2,0.7,2,0.7c0.6,0,1.2-0.1,1.6-0.5c0.4-0.3,0.7-0.8,0.9-1.3h4.8
				c-0.2,1-0.6,2-1.3,2.8c-0.7,0.8-1.5,1.5-2.5,1.9c-2.3,1-4.9,0.9-7.2-0.2c-1.1-0.6-2-1.5-2.6-2.6c-1.3-2.5-1.3-5.5,0-8
				c0.6-1.1,1.5-2,2.6-2.6c2.4-1.2,5.3-1.2,7.7,0c1.1,0.6,2,1.4,2.6,2.5c0.6,1.1,0.9,2.4,0.9,3.7
				C347.7,357.4,347.7,357.8,347.6,358.2z M342.4,354.1c-0.5-0.5-1.3-0.8-2-0.7c-0.8,0-1.5,0.2-2,0.7c-0.6,0.6-0.9,1.3-0.9,2.2h5.7
				C343.2,355.5,343,354.7,342.4,354.1L342.4,354.1z"/>
			<path d="M362.5,350.8c1,0.6,1.8,1.5,2.3,2.6c1.1,2.6,1.1,5.4,0,8c-0.5,1.1-1.3,2-2.3,2.6c-1,0.6-2.1,0.9-3.2,0.9
				c-1,0-2-0.2-2.9-0.8c-0.8-0.5-1.4-1.2-1.8-2.1v9.6h-4.5V350h4.5v2.7c0.4-0.9,1-1.6,1.8-2.1c0.9-0.5,1.9-0.8,2.9-0.8
				C360.4,349.8,361.5,350.2,362.5,350.8z M355.5,354.8c-1.2,1.5-1.2,3.7,0,5.2c1.3,1.3,3.4,1.3,4.7,0c1.2-1.6,1.2-3.7,0-5.3
				c-0.6-0.6-1.5-1-2.3-1C356.9,353.8,356,354.1,355.5,354.8L355.5,354.8z"/>
			<path d="M377.7,351.3c1.1,0.9,1.9,2.2,2.1,3.7h-4.2c-0.1-0.6-0.4-1.1-0.8-1.4c-0.5-0.4-1-0.5-1.6-0.5c-0.4,0-0.8,0.1-1.1,0.3
				c-0.3,0.2-0.4,0.6-0.4,0.9c0,0.5,0.3,0.8,0.7,1c0.7,0.3,1.5,0.5,2.3,0.7c0.9,0.2,1.9,0.5,2.8,0.8c0.7,0.3,1.4,0.7,1.9,1.3
				c0.6,0.7,0.8,1.6,0.8,2.5c0,0.8-0.2,1.6-0.7,2.2c-0.5,0.7-1.2,1.2-2,1.5c-1,0.4-2,0.6-3,0.5c-1.7,0.1-3.4-0.4-4.8-1.3
				c-1.2-0.9-2-2.3-2.2-3.8h4.3c0,0.6,0.3,1.1,0.8,1.5c0.5,0.3,1.2,0.5,1.8,0.5c0.4,0,0.8-0.1,1.2-0.4c0.3-0.2,0.4-0.6,0.4-0.9
				c0-0.5-0.3-0.9-0.7-1.1c-0.8-0.3-1.5-0.5-2.4-0.7c-0.9-0.2-1.8-0.4-2.7-0.7c-0.7-0.3-1.3-0.7-1.8-1.3c-0.5-0.7-0.8-1.5-0.8-2.4
				c0-1.2,0.5-2.4,1.5-3.2c1.2-0.9,2.7-1.3,4.2-1.2C374.8,349.8,376.4,350.3,377.7,351.3z"/>
			<path d="M116.7,377.7v3.6h-5v15h-4.5v-15h-5v-3.6H116.7z"/>
			<path d="M129.4,382.3c1.1,0.6,2.1,1.5,2.7,2.6c1.3,2.5,1.3,5.5,0,8c-0.6,1.1-1.6,2-2.7,2.6c-2.5,1.2-5.4,1.2-7.8,0
				c-1.1-0.6-2.1-1.5-2.7-2.6c-1.3-2.5-1.3-5.5,0-8c0.6-1.1,1.6-2,2.7-2.6C124,381.1,126.9,381.1,129.4,382.3z M123.3,386.2
				c-0.6,0.8-0.9,1.7-0.9,2.7c-0.1,1,0.2,1.9,0.9,2.7c0.6,0.6,1.3,0.9,2.2,0.9c0.8,0,1.6-0.3,2.2-0.9c0.6-0.8,0.9-1.7,0.9-2.7
				c0.1-1-0.3-1.9-0.9-2.7c-0.6-0.6-1.3-0.9-2.2-0.9C124.6,385.3,123.8,385.6,123.3,386.2L123.3,386.2z"/>
			<path d="M152.1,392.9h-7l-1.1,3.4h-4.7l6.8-18.5h5.2l6.8,18.5h-4.8L152.1,392.9z M151,389.5l-2.3-6.8l-2.3,6.8H151z"/>
			<path d="M176.5,380.8l-6.6,15.4h-4.6l6.7-14.9H164v-3.9h12.5L176.5,380.8z"/>
			<path d="M186.2,383.2c0-1.4-0.6-2.1-1.9-2.1c-0.6,0-1.2,0.2-1.5,0.7c-0.4,0.7-0.6,1.5-0.5,2.3h-4.4c0-1.9,0.7-3.8,2.1-5.1
				c1.3-1.2,3-1.8,4.8-1.7c1.7-0.1,3.3,0.4,4.6,1.5c1,1.1,1.6,2.5,1.5,4c-0.1,2-0.8,3.8-2.1,5.3c-1.4,1.7-3.1,3.2-5,4.4h7.3v3.6
				h-13.2v-3.4C183.4,388.7,186.2,385.5,186.2,383.2z"/>
			<path d="M192.9,386.8c-0.1-2.4,0.5-4.8,1.8-6.9c1.2-1.7,3.1-2.5,5.6-2.5c2.6,0,4.5,0.8,5.6,2.5c2.4,4.3,2.4,9.5,0,13.8
				c-1.2,1.7-3.1,2.5-5.6,2.5s-4.4-0.9-5.6-2.5C193.4,391.6,192.8,389.2,192.9,386.8z M203.2,386.8c0.1-1.3-0.1-2.6-0.6-3.8
				c-0.4-0.9-1.3-1.4-2.3-1.3c-1-0.1-1.9,0.5-2.3,1.4c-0.5,1.2-0.7,2.5-0.6,3.8c-0.1,1.3,0.1,2.6,0.6,3.9c0.4,0.9,1.4,1.5,2.4,1.4
				c1,0.1,1.9-0.4,2.3-1.4C203.1,389.4,203.3,388.1,203.2,386.8L203.2,386.8z"/>
			<path d="M227.3,393.8c-0.5,0.9-1.3,1.6-2.2,2c-1.1,0.5-2.3,0.8-3.5,0.7c-1.8,0.1-3.7-0.5-5.2-1.5c-1.3-1-2.2-2.6-2.2-4.3h4.8
				c0,0.6,0.3,1.2,0.8,1.7c0.4,0.4,1,0.6,1.6,0.6c0.5,0,1-0.1,1.4-0.5c0.3-0.3,0.5-0.8,0.5-1.3c0-0.4-0.2-0.9-0.5-1.2
				c-0.3-0.3-0.7-0.6-1.1-0.8c-0.5-0.2-1.1-0.5-1.9-0.7c-1-0.3-1.9-0.7-2.9-1.2c-0.8-0.4-1.4-1-1.9-1.7c-1.1-1.8-1.1-4,0-5.8
				c0.6-0.9,1.4-1.5,2.3-1.9c1.1-0.4,2.2-0.7,3.4-0.6c1.8-0.1,3.5,0.4,4.9,1.5c1.2,1,2,2.5,2.1,4h-4.9c-0.1-0.5-0.3-1.1-0.7-1.5
				c-0.4-0.4-0.9-0.6-1.4-0.5c-0.5,0-0.9,0.1-1.3,0.4c-0.3,0.3-0.5,0.8-0.5,1.2c0,0.4,0.1,0.8,0.4,1.1c0.3,0.3,0.7,0.6,1.1,0.8
				c0.4,0.2,1.1,0.4,1.9,0.7c1,0.3,2,0.7,2.9,1.2c0.8,0.4,1.4,1,1.9,1.7c0.6,0.9,0.9,1.9,0.8,3C228,392,227.8,392.9,227.3,393.8z"/>
			<path d="M241.9,383c1.3,1.1,2.2,2.6,2.4,4.3h-4.8c-0.1-0.6-0.4-1.1-0.9-1.5c-0.5-0.4-1.1-0.6-1.6-0.5c-0.8,0-1.5,0.3-1.9,0.9
				c-1,1.7-1,3.8,0,5.4c0.5,0.6,1.2,1,1.9,0.9c0.6,0,1.2-0.2,1.6-0.5c0.5-0.4,0.8-0.9,0.9-1.5h4.8c-0.3,1.7-1.1,3.2-2.4,4.3
				c-1.4,1.1-3,1.6-4.8,1.6c-1.3,0-2.6-0.3-3.8-0.9c-1.1-0.6-2-1.5-2.6-2.6c-1.3-2.5-1.3-5.5,0-8c0.6-1.1,1.5-2,2.6-2.6
				c1.2-0.6,2.5-0.9,3.8-0.9C238.9,381.4,240.6,381.9,241.9,383z"/>
			<path d="M257.4,382.3c1.1,0.6,2.1,1.5,2.7,2.6c1.3,2.5,1.3,5.5,0,8c-0.6,1.1-1.6,2-2.7,2.6c-1.2,0.6-2.5,0.9-3.9,0.9
				c-1.4,0-2.7-0.3-3.9-0.9c-1.1-0.6-2.1-1.5-2.7-2.6c-1.3-2.5-1.3-5.5,0-8c0.6-1.1,1.6-2,2.7-2.6c1.2-0.6,2.6-0.9,3.9-0.9
				C254.9,381.4,256.2,381.7,257.4,382.3z M251.4,386.2c-1.2,1.6-1.2,3.8,0,5.4c1.1,1.2,3,1.2,4.2,0.1c0,0,0.1-0.1,0.1-0.1
				c1.1-1.6,1.1-3.8,0-5.4c-0.6-0.6-1.3-0.9-2.2-0.9C252.7,385.3,251.9,385.6,251.4,386.2z"/>
			<path d="M270.1,382.2c0.9-0.5,1.9-0.8,2.9-0.8v4.8h-1.3c-1-0.1-1.9,0.2-2.7,0.8c-0.7,0.7-1.1,1.6-1,2.6v6.7h-4.5v-14.7h4.5v2.8
				C268.5,383.5,269.3,382.8,270.1,382.2z"/>
			<path d="M288.7,389.8h-10.2c0,0.9,0.3,1.7,0.8,2.4c1,0.9,2.5,1,3.6,0.2c0.4-0.3,0.7-0.8,0.9-1.3h4.8c-0.2,1-0.6,2-1.3,2.8
				c-0.7,0.8-1.5,1.5-2.5,1.9c-2.3,1-4.9,0.9-7.2-0.2c-1.1-0.6-2-1.5-2.6-2.6c-1.3-2.5-1.3-5.5,0-8c0.6-1.1,1.5-2,2.6-2.6
				c2.4-1.2,5.3-1.2,7.7,0c1.1,0.6,2,1.4,2.6,2.5c0.6,1.1,0.9,2.4,0.9,3.7C288.8,389,288.8,389.4,288.7,389.8z M283.5,385.7
				c-0.5-0.5-1.3-0.8-2-0.7c-0.8,0-1.5,0.2-2,0.7c-0.6,0.6-0.9,1.3-0.9,2.2h5.7C284.4,387.1,284.1,386.3,283.5,385.7z"/>
			<path d="M297.3,376.8l-0.5,12.9H293l-0.6-12.9H297.3z M297.2,391.8v4.5h-4.7v-4.5H297.2z"/>
		</g>
	</g>
</g>
</svg>
