<svg id="Layer_1" data-name="Layer 1" xmlns="http://www.w3.org/2000/svg" viewBox="0 0 1227 795"><defs><style>.cls-1{fill:#242258;stroke:#242258;stroke-width:3px;}.cls-1,.cls-2{stroke-miterlimit:10;}.cls-2{fill:none;stroke:#0d1238;stroke-width:2px;}</style></defs><title>background</title><rect class="cls-1" x="1.5" y="1.5" width="1224" height="792"/><line class="cls-2" x1="5.97" y1="1.5" x2="1.5" y2="5.97"/><line class="cls-2" x1="16.75" y1="1.5" x2="1.5" y2="16.75"/><line class="cls-2" x1="27.53" y1="1.5" x2="1.5" y2="27.53"/><line class="cls-2" x1="38.31" y1="1.5" x2="1.5" y2="38.31"/><line class="cls-2" x1="49.09" y1="1.5" x2="1.5" y2="49.09"/><line class="cls-2" x1="59.87" y1="1.5" x2="1.5" y2="59.87"/><line class="cls-2" x1="70.65" y1="1.5" x2="1.5" y2="70.65"/><line class="cls-2" x1="81.43" y1="1.5" x2="1.5" y2="81.43"/><line class="cls-2" x1="92.21" y1="1.5" x2="1.5" y2="92.21"/><line class="cls-2" x1="102.99" y1="1.5" x2="1.5" y2="102.99"/><line class="cls-2" x1="113.77" y1="1.5" x2="1.5" y2="113.77"/><line class="cls-2" x1="124.55" y1="1.5" x2="1.5" y2="124.55"/><line class="cls-2" x1="135.33" y1="1.5" x2="1.5" y2="135.33"/><line class="cls-2" x1="146.11" y1="1.5" x2="1.5" y2="146.11"/><line class="cls-2" x1="156.88" y1="1.5" x2="1.5" y2="156.88"/><line class="cls-2" x1="167.66" y1="1.5" x2="1.5" y2="167.66"/><line class="cls-2" x1="178.44" y1="1.5" x2="1.5" y2="178.44"/><line class="cls-2" x1="189.22" y1="1.5" x2="1.5" y2="189.22"/><line class="cls-2" x1="200" y1="1.5" x2="1.5" y2="200"/><line class="cls-2" x1="210.78" y1="1.5" x2="1.5" y2="210.78"/><line class="cls-2" x1="221.55" y1="1.5" x2="1.5" y2="221.55"/><line class="cls-2" x1="232.33" y1="1.5" x2="1.5" y2="232.33"/><line class="cls-2" x1="243.11" y1="1.5" x2="1.5" y2="243.11"/><line class="cls-2" x1="253.89" y1="1.5" x2="1.5" y2="253.89"/><line class="cls-2" x1="264.67" y1="1.5" x2="1.5" y2="264.67"/><line class="cls-2" x1="275.45" y1="1.5" x2="1.5" y2="275.45"/><line class="cls-2" x1="286.23" y1="1.5" x2="1.5" y2="286.23"/><line class="cls-2" x1="297.01" y1="1.5" x2="1.5" y2="297.01"/><line class="cls-2" x1="307.79" y1="1.5" x2="1.5" y2="307.79"/><line class="cls-2" x1="318.57" y1="1.5" x2="1.5" y2="318.57"/><line class="cls-2" x1="329.35" y1="1.5" x2="1.5" y2="329.35"/><line class="cls-2" x1="340.13" y1="1.5" x2="1.5" y2="340.13"/><line class="cls-2" x1="350.91" y1="1.5" x2="1.5" y2="350.91"/><line class="cls-2" x1="361.69" y1="1.5" x2="1.5" y2="361.69"/><line class="cls-2" x1="372.47" y1="1.5" x2="1.5" y2="372.47"/><line class="cls-2" x1="383.25" y1="1.5" x2="1.5" y2="383.25"/><line class="cls-2" x1="394.03" y1="1.5" x2="1.5" y2="394.03"/><line class="cls-2" x1="404.81" y1="1.5" x2="1.5" y2="404.81"/><line class="cls-2" x1="415.59" y1="1.5" x2="1.5" y2="415.59"/><line class="cls-2" x1="426.37" y1="1.5" x2="1.5" y2="426.36"/><line class="cls-2" x1="437.15" y1="1.5" x2="1.5" y2="437.14"/><line class="cls-2" x1="447.92" y1="1.5" x2="1.5" y2="447.92"/><line class="cls-2" x1="458.69" y1="1.5" x2="1.5" y2="458.7"/><line class="cls-2" x1="469.47" y1="1.5" x2="1.5" y2="469.48"/><line class="cls-2" x1="480.25" y1="1.5" x2="1.5" y2="480.26"/><line class="cls-2" x1="491.03" y1="1.5" x2="1.5" y2="491.03"/><line class="cls-2" x1="501.81" y1="1.5" x2="1.5" y2="501.81"/><line class="cls-2" x1="512.59" y1="1.5" x2="1.5" y2="512.59"/><line class="cls-2" x1="523.37" y1="1.5" x2="1.5" y2="523.37"/><line class="cls-2" x1="534.15" y1="1.5" x2="1.5" y2="534.15"/><line class="cls-2" x1="544.93" y1="1.5" x2="1.5" y2="544.93"/><line class="cls-2" x1="555.71" y1="1.5" x2="1.5" y2="555.71"/><line class="cls-2" x1="566.49" y1="1.5" x2="1.5" y2="566.49"/><line class="cls-2" x1="577.27" y1="1.5" x2="1.5" y2="577.27"/><line class="cls-2" x1="588.05" y1="1.5" x2="1.5" y2="588.05"/><line class="cls-2" x1="598.83" y1="1.5" x2="1.5" y2="598.83"/><line class="cls-2" x1="609.61" y1="1.5" x2="1.5" y2="609.61"/><line class="cls-2" x1="620.39" y1="1.5" x2="1.5" y2="620.39"/><line class="cls-2" x1="631.17" y1="1.5" x2="1.5" y2="631.17"/><line class="cls-2" x1="641.95" y1="1.5" x2="1.5" y2="641.95"/><line class="cls-2" x1="652.73" y1="1.5" x2="1.5" y2="652.73"/><line class="cls-2" x1="663.51" y1="1.5" x2="1.5" y2="663.51"/><line class="cls-2" x1="674.29" y1="1.5" x2="1.5" y2="674.29"/><line class="cls-2" x1="685.07" y1="1.5" x2="1.5" y2="685.07"/><line class="cls-2" x1="695.85" y1="1.5" x2="1.5" y2="695.84"/><line class="cls-2" x1="706.62" y1="1.5" x2="1.5" y2="706.62"/><line class="cls-2" x1="717.4" y1="1.5" x2="1.5" y2="717.4"/><line class="cls-2" x1="728.17" y1="1.5" x2="1.5" y2="728.18"/><line class="cls-2" x1="738.95" y1="1.5" x2="1.5" y2="738.96"/><line class="cls-2" x1="749.73" y1="1.5" x2="1.5" y2="749.74"/><line class="cls-2" x1="760.51" y1="1.5" x2="1.5" y2="760.51"/><line class="cls-2" x1="771.29" y1="1.5" x2="1.5" y2="771.29"/><line class="cls-2" x1="782.07" y1="1.5" x2="1.5" y2="782.07"/><line class="cls-2" x1="792.85" y1="1.5" x2="1.5" y2="792.85"/><line class="cls-2" x1="803.63" y1="1.5" x2="11.63" y2="793.5"/><line class="cls-2" x1="814.41" y1="1.5" x2="22.41" y2="793.5"/><line class="cls-2" x1="825.19" y1="1.5" x2="33.19" y2="793.5"/><line class="cls-2" x1="835.97" y1="1.5" x2="43.97" y2="793.5"/><line class="cls-2" x1="846.75" y1="1.5" x2="54.75" y2="793.5"/><line class="cls-2" x1="857.53" y1="1.5" x2="65.53" y2="793.5"/><line class="cls-2" x1="868.31" y1="1.5" x2="76.31" y2="793.5"/><line class="cls-2" x1="879.09" y1="1.5" x2="87.09" y2="793.5"/><line class="cls-2" x1="889.87" y1="1.5" x2="97.87" y2="793.5"/><line class="cls-2" x1="900.65" y1="1.5" x2="108.65" y2="793.5"/><line class="cls-2" x1="911.43" y1="1.5" x2="119.43" y2="793.5"/><line class="cls-2" x1="922.21" y1="1.5" x2="130.21" y2="793.5"/><line class="cls-2" x1="932.99" y1="1.5" x2="140.99" y2="793.5"/><line class="cls-2" x1="943.77" y1="1.5" x2="151.77" y2="793.5"/><line class="cls-2" x1="954.55" y1="1.5" x2="162.55" y2="793.5"/><line class="cls-2" x1="965.33" y1="1.5" x2="173.32" y2="793.5"/><line class="cls-2" x1="976.1" y1="1.5" x2="184.1" y2="793.5"/><line class="cls-2" x1="986.88" y1="1.5" x2="194.88" y2="793.5"/><line class="cls-2" x1="997.65" y1="1.5" x2="205.66" y2="793.5"/><line class="cls-2" x1="1008.43" y1="1.5" x2="216.44" y2="793.5"/><line class="cls-2" x1="1019.21" y1="1.5" x2="227.21" y2="793.5"/><line class="cls-2" x1="1029.99" y1="1.5" x2="237.99" y2="793.5"/><line class="cls-2" x1="1040.77" y1="1.5" x2="248.77" y2="793.5"/><line class="cls-2" x1="1051.55" y1="1.5" x2="259.55" y2="793.5"/><line class="cls-2" x1="1062.33" y1="1.5" x2="270.33" y2="793.5"/><line class="cls-2" x1="1073.11" y1="1.5" x2="281.11" y2="793.5"/><line class="cls-2" x1="1083.89" y1="1.5" x2="291.89" y2="793.5"/><line class="cls-2" x1="1094.67" y1="1.5" x2="302.67" y2="793.5"/><line class="cls-2" x1="1105.45" y1="1.5" x2="313.45" y2="793.5"/><line class="cls-2" x1="1116.23" y1="1.5" x2="324.23" y2="793.5"/><line class="cls-2" x1="1127.01" y1="1.5" x2="335.01" y2="793.5"/><line class="cls-2" x1="1137.79" y1="1.5" x2="345.79" y2="793.5"/><line class="cls-2" x1="1148.57" y1="1.5" x2="356.57" y2="793.5"/><line class="cls-2" x1="1159.35" y1="1.5" x2="367.35" y2="793.5"/><line class="cls-2" x1="1170.13" y1="1.5" x2="378.13" y2="793.5"/><line class="cls-2" x1="1180.91" y1="1.5" x2="388.91" y2="793.5"/><line class="cls-2" x1="1191.69" y1="1.5" x2="399.69" y2="793.5"/><line class="cls-2" x1="1202.47" y1="1.5" x2="410.47" y2="793.5"/><line class="cls-2" x1="1213.25" y1="1.5" x2="421.25" y2="793.5"/><line class="cls-2" x1="1224.03" y1="1.5" x2="432.02" y2="793.5"/><line class="cls-2" x1="1225.5" y1="10.81" x2="442.8" y2="793.5"/><line class="cls-2" x1="1225.5" y1="21.58" x2="453.58" y2="793.5"/><line class="cls-2" x1="1225.5" y1="32.35" x2="464.36" y2="793.5"/><line class="cls-2" x1="1225.5" y1="43.13" x2="475.14" y2="793.5"/><line class="cls-2" x1="1225.5" y1="53.91" x2="485.92" y2="793.5"/><line class="cls-2" x1="1225.5" y1="64.69" x2="496.69" y2="793.5"/><line class="cls-2" x1="1225.5" y1="75.47" x2="507.47" y2="793.5"/><line class="cls-2" x1="1225.5" y1="86.25" x2="518.25" y2="793.5"/><line class="cls-2" x1="1225.5" y1="97.03" x2="529.03" y2="793.5"/><line class="cls-2" x1="1225.5" y1="107.81" x2="539.81" y2="793.5"/><line class="cls-2" x1="1225.5" y1="118.59" x2="550.59" y2="793.5"/><line class="cls-2" x1="1225.5" y1="129.37" x2="561.37" y2="793.5"/><line class="cls-2" x1="1225.5" y1="140.15" x2="572.15" y2="793.5"/><line class="cls-2" x1="1225.5" y1="150.93" x2="582.93" y2="793.5"/><line class="cls-2" x1="1225.5" y1="161.71" x2="593.71" y2="793.5"/><line class="cls-2" x1="1225.5" y1="172.49" x2="604.49" y2="793.5"/><line class="cls-2" x1="1225.5" y1="183.27" x2="615.27" y2="793.5"/><line class="cls-2" x1="1225.5" y1="194.05" x2="626.05" y2="793.5"/><line class="cls-2" x1="1225.5" y1="204.83" x2="636.83" y2="793.5"/><line class="cls-2" x1="1225.5" y1="215.61" x2="647.61" y2="793.5"/><line class="cls-2" x1="1225.5" y1="226.39" x2="658.39" y2="793.5"/><line class="cls-2" x1="1225.5" y1="237.17" x2="669.17" y2="793.5"/><line class="cls-2" x1="1225.5" y1="247.95" x2="679.95" y2="793.5"/><line class="cls-2" x1="1225.5" y1="258.73" x2="690.73" y2="793.5"/><line class="cls-2" x1="1225.5" y1="269.51" x2="701.5" y2="793.5"/><line class="cls-2" x1="1225.5" y1="280.29" x2="712.28" y2="793.5"/><line class="cls-2" x1="1225.5" y1="291.06" x2="723.06" y2="793.5"/><line class="cls-2" x1="1225.5" y1="301.83" x2="733.84" y2="793.5"/><line class="cls-2" x1="1225.5" y1="312.61" x2="744.62" y2="793.5"/><line class="cls-2" x1="1225.5" y1="323.39" x2="755.4" y2="793.5"/><line class="cls-2" x1="1225.5" y1="334.17" x2="766.17" y2="793.5"/><line class="cls-2" x1="1225.5" y1="344.95" x2="776.95" y2="793.5"/><line class="cls-2" x1="1225.5" y1="355.73" x2="787.73" y2="793.5"/><line class="cls-2" x1="1225.5" y1="366.51" x2="798.51" y2="793.5"/><line class="cls-2" x1="1225.5" y1="377.29" x2="809.29" y2="793.5"/><line class="cls-2" x1="1225.5" y1="388.07" x2="820.07" y2="793.5"/><line class="cls-2" x1="1225.5" y1="398.85" x2="830.85" y2="793.5"/><line class="cls-2" x1="1225.5" y1="409.63" x2="841.63" y2="793.5"/><line class="cls-2" x1="1225.5" y1="420.41" x2="852.41" y2="793.5"/><line class="cls-2" x1="1225.5" y1="431.19" x2="863.19" y2="793.5"/><line class="cls-2" x1="1225.5" y1="441.97" x2="873.97" y2="793.5"/><line class="cls-2" x1="1225.5" y1="452.75" x2="884.75" y2="793.5"/><line class="cls-2" x1="1225.5" y1="463.53" x2="895.53" y2="793.5"/><line class="cls-2" x1="1225.5" y1="474.31" x2="906.31" y2="793.5"/><line class="cls-2" x1="1225.5" y1="485.09" x2="917.09" y2="793.5"/><line class="cls-2" x1="1225.5" y1="495.87" x2="927.87" y2="793.5"/><line class="cls-2" x1="1225.5" y1="506.65" x2="938.65" y2="793.5"/><line class="cls-2" x1="1225.5" y1="517.43" x2="949.43" y2="793.5"/><line class="cls-2" x1="1225.5" y1="528.21" x2="960.21" y2="793.5"/><line class="cls-2" x1="1225.5" y1="538.99" x2="970.98" y2="793.5"/><line class="cls-2" x1="1225.5" y1="549.77" x2="981.76" y2="793.5"/><line class="cls-2" x1="1225.5" y1="560.54" x2="992.54" y2="793.5"/><line class="cls-2" x1="1225.5" y1="571.31" x2="1003.32" y2="793.5"/><line class="cls-2" x1="1225.5" y1="582.09" x2="1014.1" y2="793.5"/><line class="cls-2" x1="1225.5" y1="592.87" x2="1024.87" y2="793.5"/><line class="cls-2" x1="1225.5" y1="603.65" x2="1035.65" y2="793.5"/><line class="cls-2" x1="1225.5" y1="614.43" x2="1046.43" y2="793.5"/><line class="cls-2" x1="1225.5" y1="625.21" x2="1057.21" y2="793.5"/><line class="cls-2" x1="1225.5" y1="635.99" x2="1067.99" y2="793.5"/><line class="cls-2" x1="1225.5" y1="646.77" x2="1078.77" y2="793.5"/><line class="cls-2" x1="1225.5" y1="657.55" x2="1089.55" y2="793.5"/><line class="cls-2" x1="1225.5" y1="668.33" x2="1100.33" y2="793.5"/><line class="cls-2" x1="1225.5" y1="679.11" x2="1111.11" y2="793.5"/><line class="cls-2" x1="1225.5" y1="689.89" x2="1121.89" y2="793.5"/><line class="cls-2" x1="1225.5" y1="700.67" x2="1132.67" y2="793.5"/><line class="cls-2" x1="1225.5" y1="711.45" x2="1143.45" y2="793.5"/><line class="cls-2" x1="1225.5" y1="722.23" x2="1154.23" y2="793.5"/><line class="cls-2" x1="1225.5" y1="733.01" x2="1165.01" y2="793.5"/><line class="cls-2" x1="1225.5" y1="743.79" x2="1175.79" y2="793.5"/><line class="cls-2" x1="1225.5" y1="754.57" x2="1186.57" y2="793.5"/><line class="cls-2" x1="1225.5" y1="765.35" x2="1197.35" y2="793.5"/><line class="cls-2" x1="1225.5" y1="776.13" x2="1208.13" y2="793.5"/><line class="cls-2" x1="1225.5" y1="786.91" x2="1218.91" y2="793.5"/></svg>