<svg xmlns="http://www.w3.org/2000/svg" viewBox="0 0 904.96 26.66"><defs><style>.cls-1{fill:#cccccb;}</style></defs><title>Asset 1</title><g id="Layer_2" data-name="Layer 2"><g id="Layer_1-2" data-name="Layer 1"><path class="cls-1" d="M0,.8H1.16L3,7.89,5,.8H6.22L8.14,7.87,10,.8h1.17L8.73,9.16H7.51L5.56,2.43l-2,6.73-1.21,0Z"/><path class="cls-1" d="M15.2,9.27A3.17,3.17,0,0,1,12,5.86,3.13,3.13,0,0,1,15.2,2.48a3,3,0,0,1,3.16,3.15c0,.23,0,.43,0,.65H13.07A2.06,2.06,0,0,0,15.2,8.35a1.81,1.81,0,0,0,1.85-1.21h1.17A2.94,2.94,0,0,1,15.2,9.27ZM13.08,5.4h4.15a1.93,1.93,0,0,0-2.08-2A2,2,0,0,0,13.08,5.4Z"/><path class="cls-1" d="M25.71,2.48a2.73,2.73,0,0,1,2.45,1.31V2.59h1.1V9.16h-1.1V7.94A2.74,2.74,0,0,1,25.7,9.27a3.16,3.16,0,0,1-3.1-3.42A3.11,3.11,0,0,1,25.71,2.48Zm.22,1a2.22,2.22,0,0,0-2.22,2.42,2.24,2.24,0,1,0,4.45,0A2.25,2.25,0,0,0,25.93,3.43Z"/><path class="cls-1" d="M32.21,9.16H31.12V2.59h1.09V3.66a2.22,2.22,0,0,1,2.12-1.19V3.6H34c-1,0-1.83.47-1.83,2Z"/><path class="cls-1" d="M38.43,9.27a3.17,3.17,0,0,1-3.25-3.41,3.13,3.13,0,0,1,3.25-3.38,3,3,0,0,1,3.16,3.15,4.63,4.63,0,0,1,0,.65H36.3a2.06,2.06,0,0,0,2.13,2.07,1.81,1.81,0,0,0,1.85-1.21h1.18A3,3,0,0,1,38.43,9.27ZM36.31,5.4h4.15a1.93,1.93,0,0,0-2.07-2A2,2,0,0,0,36.31,5.4Z"/><path class="cls-1" d="M49,2.48a2.72,2.72,0,0,1,2.44,1.31V2.59H52.5V9.16H51.39V7.94a2.72,2.72,0,0,1-2.46,1.33,3.16,3.16,0,0,1-3.1-3.42A3.11,3.11,0,0,1,49,2.48Zm.21,1a2.22,2.22,0,0,0-2.22,2.42,2.24,2.24,0,1,0,4.45,0A2.25,2.25,0,0,0,49.16,3.43Z"/><path class="cls-1" d="M60.27,2.48a2.88,2.88,0,0,1,2.44,1.29V.29h1.1V9.16h-1.1V7.93a2.71,2.71,0,0,1-2.45,1.34,3.17,3.17,0,0,1-3.12-3.42A3.12,3.12,0,0,1,60.27,2.48Zm.21,1a2.22,2.22,0,0,0-2.22,2.42,2.24,2.24,0,1,0,4.45,0A2.25,2.25,0,0,0,60.48,3.43Z"/><path class="cls-1" d="M68.51,9.27a3.16,3.16,0,0,1-3.25-3.41,3.13,3.13,0,0,1,3.25-3.38,3,3,0,0,1,3.15,3.15,4.63,4.63,0,0,1,0,.65H66.37a2.07,2.07,0,0,0,2.14,2.07,1.81,1.81,0,0,0,1.84-1.21h1.18A3,3,0,0,1,68.51,9.27ZM66.38,5.4h4.15a1.93,1.93,0,0,0-2.07-2A2,2,0,0,0,66.38,5.4Z"/><path class="cls-1" d="M76.65,2.48a3.11,3.11,0,0,1,3.12,3.37,3.16,3.16,0,0,1-3.12,3.42A2.75,2.75,0,0,1,74.19,8V9.16H73.1V.29h1.09V3.81A2.79,2.79,0,0,1,76.65,2.48Zm-.22,1a2.26,2.26,0,0,0-2.24,2.43,2.24,2.24,0,1,0,4.47,0A2.22,2.22,0,0,0,76.43,3.43Z"/><path class="cls-1" d="M81.46,3.49H80.6v-.9h.86V.94h1.09V2.59h1.71v.9H82.55V7.36c0,.65.24.88.91.88h.8v.92h-1c-1.17,0-1.82-.48-1.82-1.8Z"/><path class="cls-1" d="M89.88,9.16H88.79V2.59h1.09V3.66A2.22,2.22,0,0,1,92,2.47V3.6h-.29c-1,0-1.83.47-1.83,2Z"/><path class="cls-1" d="M96.11,9.27a3.17,3.17,0,0,1-3.26-3.41,3.14,3.14,0,0,1,3.26-3.38,3,3,0,0,1,3.15,3.15,4.63,4.63,0,0,1,0,.65H94a2.07,2.07,0,0,0,2.14,2.07A1.81,1.81,0,0,0,98,7.14h1.18A3,3,0,0,1,96.11,9.27ZM94,5.4h4.15a1.93,1.93,0,0,0-2.07-2A2,2,0,0,0,94,5.4Z"/><path class="cls-1" d="M100.7.29h1.09V9.16H100.7Z"/><path class="cls-1" d="M103.47.78a.74.74,0,1,1,1.47,0,.74.74,0,1,1-1.47,0Zm.18,1.81h1.1V9.16h-1.1Z"/><path class="cls-1" d="M109.45,9.27a3.17,3.17,0,0,1-3.25-3.41,3.13,3.13,0,0,1,3.25-3.38,3,3,0,0,1,3.15,3.15c0,.23,0,.43,0,.65h-5.26a2.07,2.07,0,0,0,2.14,2.07,1.82,1.82,0,0,0,1.85-1.21h1.17A2.94,2.94,0,0,1,109.45,9.27ZM107.33,5.4h4.15a1.93,1.93,0,0,0-2.08-2A2,2,0,0,0,107.33,5.4Z"/><path class="cls-1" d="M114.25,3.49h-.85v-.9h.85V2.12c0-1.46.72-2.12,2.4-2.12V.91c-1,0-1.31.36-1.31,1.21v.47h1.38v.9h-1.38V9.16h-1.09Z"/><path class="cls-1" d="M123.91,2.48a2.75,2.75,0,0,1,2.45,1.31V2.59h1.1V9.16h-1.1V7.94a2.75,2.75,0,0,1-2.46,1.33,3.17,3.17,0,0,1-3.11-3.42A3.12,3.12,0,0,1,123.91,2.48Zm.22,1a2.22,2.22,0,0,0-2.22,2.42,2.24,2.24,0,1,0,4.45,0A2.25,2.25,0,0,0,124.13,3.43Z"/><path class="cls-1" d="M132,2.48a2.72,2.72,0,0,1,2.45,1.31V2.59h1.1V9.31a2.94,2.94,0,0,1-3.14,3.09c-1.73,0-3-.87-3.18-2.28h1.08a2,2,0,0,0,2.1,1.33,2,2,0,0,0,2-2.14V7.93A2.75,2.75,0,0,1,132,9.27a3.17,3.17,0,0,1-3.12-3.42A3.12,3.12,0,0,1,132,2.48Zm.22,1A2.22,2.22,0,0,0,130,5.85a2.24,2.24,0,1,0,4.45,0A2.25,2.25,0,0,0,132.24,3.43Z"/><path class="cls-1" d="M140.26,9.27A3.17,3.17,0,0,1,137,5.86a3.13,3.13,0,0,1,3.25-3.38,3,3,0,0,1,3.16,3.15,4.63,4.63,0,0,1,0,.65h-5.25a2.06,2.06,0,0,0,2.13,2.07,1.81,1.81,0,0,0,1.85-1.21h1.18A3,3,0,0,1,140.26,9.27ZM138.14,5.4h4.15a1.93,1.93,0,0,0-2.07-2A2,2,0,0,0,138.14,5.4Z"/><path class="cls-1" d="M149.67,5.45c0-1.35-.73-2-1.83-2S146,4.11,146,5.53V9.16h-1.09V2.59H146v.94a2.43,2.43,0,0,1,2.11-1.06,2.55,2.55,0,0,1,2.69,2.82V9.16h-1.08Z"/><path class="cls-1" d="M155.34,2.48a2.85,2.85,0,0,1,3,2.22H157.2a1.79,1.79,0,0,0-1.86-1.29c-1.2,0-2.09.85-2.09,2.45s.89,2.49,2.09,2.49a1.77,1.77,0,0,0,1.86-1.3h1.17a2.91,2.91,0,0,1-3,2.22,3.14,3.14,0,0,1-3.21-3.41A3.13,3.13,0,0,1,155.34,2.48Z"/><path class="cls-1" d="M164.36,2.59h1.13l-4,9.67H160.4l1.3-3.17-2.65-6.5h1.21l2.06,5.33Z"/><path class="cls-1" d="M166.93,9.23a.74.74,0,1,1,.72-.74A.73.73,0,0,1,166.93,9.23Z"/><path class="cls-1" d="M171.66.8h1.16l1.82,7.09,2-7.09h1.22l1.92,7.07L181.64.8h1.17l-2.42,8.36h-1.22l-1.95-6.73-2,6.73-1.21,0Z"/><path class="cls-1" d="M186.86,9.27a3.17,3.17,0,0,1-3.25-3.41,3.13,3.13,0,0,1,3.25-3.38A3,3,0,0,1,190,5.63c0,.23,0,.43,0,.65h-5.25a2.06,2.06,0,0,0,2.13,2.07,1.82,1.82,0,0,0,1.85-1.21h1.17A2.94,2.94,0,0,1,186.86,9.27ZM184.74,5.4h4.15a1.93,1.93,0,0,0-2.08-2A2,2,0,0,0,184.74,5.4Z"/><path class="cls-1" d="M194.66.29h1.09V3.54a2.48,2.48,0,0,1,2.17-1.07,2.54,2.54,0,0,1,2.63,2.82V9.16h-1.08V5.45c0-1.35-.73-2-1.83-2s-1.89.69-1.89,2.11V9.16h-1.09Z"/><path class="cls-1" d="M205.18,9.27a3.17,3.17,0,0,1-3.25-3.41,3.13,3.13,0,0,1,3.25-3.38,3,3,0,0,1,3.16,3.15,4.63,4.63,0,0,1,0,.65h-5.25a2.06,2.06,0,0,0,2.13,2.07A1.81,1.81,0,0,0,207,7.14h1.18A3,3,0,0,1,205.18,9.27ZM203.06,5.4h4.15a1.93,1.93,0,0,0-2.07-2A2,2,0,0,0,203.06,5.4Z"/><path class="cls-1" d="M209.78.29h1.09V9.16h-1.09Z"/><path class="cls-1" d="M216.28,2.48a3.11,3.11,0,0,1,3.12,3.37,3.16,3.16,0,0,1-3.12,3.42A2.82,2.82,0,0,1,213.83,8v4.33h-1.1V2.59h1.1V3.8A2.76,2.76,0,0,1,216.28,2.48Zm-.22,1a2.25,2.25,0,0,0-2.23,2.43,2.24,2.24,0,1,0,4.46,0A2.22,2.22,0,0,0,216.06,3.43Z"/><path class="cls-1" d="M227.6,2.48a3.12,3.12,0,0,1,3.12,3.37,3.17,3.17,0,0,1-3.12,3.42A2.85,2.85,0,0,1,225.14,8v4.33h-1.09V2.59h1.09V3.8A2.8,2.8,0,0,1,227.6,2.48Zm-.23,1a2.25,2.25,0,0,0-2.23,2.43,2.24,2.24,0,1,0,4.46,0A2.22,2.22,0,0,0,227.37,3.43Z"/><path class="cls-1" d="M235,9.27a3.17,3.17,0,0,1-3.25-3.41A3.13,3.13,0,0,1,235,2.48a3,3,0,0,1,3.16,3.15,4.63,4.63,0,0,1,0,.65h-5.25A2.06,2.06,0,0,0,235,8.35a1.81,1.81,0,0,0,1.85-1.21H238A3,3,0,0,1,235,9.27ZM232.88,5.4H237a1.93,1.93,0,0,0-2.07-2A2,2,0,0,0,232.88,5.4Z"/><path class="cls-1" d="M242.47,9.27a3.2,3.2,0,0,1-3.28-3.41,3.33,3.33,0,1,1,6.65,0A3.26,3.26,0,0,1,242.47,9.27Zm0-1a2.23,2.23,0,0,0,2.25-2.45,2.21,2.21,0,0,0-2.22-2.43,2.18,2.18,0,0,0-2.19,2.43A2.17,2.17,0,0,0,242.47,8.31Z"/><path class="cls-1" d="M250.83,2.48A3.12,3.12,0,0,1,254,5.85a3.17,3.17,0,0,1-3.12,3.42A2.85,2.85,0,0,1,248.37,8v4.33h-1.09V2.59h1.09V3.8A2.8,2.8,0,0,1,250.83,2.48Zm-.23,1a2.26,2.26,0,0,0-2.23,2.43,2.24,2.24,0,1,0,4.46,0A2.22,2.22,0,0,0,250.6,3.43Z"/><path class="cls-1" d="M255.39.29h1.09V9.16h-1.09Z"/><path class="cls-1" d="M261.19,9.27a3.17,3.17,0,0,1-3.25-3.41,3.13,3.13,0,0,1,3.25-3.38,3,3,0,0,1,3.15,3.15c0,.23,0,.43,0,.65h-5.26a2.07,2.07,0,0,0,2.14,2.07A1.81,1.81,0,0,0,263,7.14h1.18A3,3,0,0,1,261.19,9.27ZM259.06,5.4h4.15a1.91,1.91,0,0,0-2.07-2A2,2,0,0,0,259.06,5.4Z"/><path class="cls-1" d="M269.19,3.49h-.85v-.9h.85V2.12c0-1.46.72-2.12,2.4-2.12V.91c-1,0-1.31.36-1.31,1.21v.47h1.38v.9h-1.38V9.16h-1.09Z"/><path class="cls-1" d="M272.76.78a.73.73,0,1,1,1.46,0,.73.73,0,1,1-1.46,0Zm.18,1.81H274V9.16h-1.09Z"/><path class="cls-1" d="M275.89.29H277V9.16h-1.09Z"/><path class="cls-1" d="M281.68,9.27a3.17,3.17,0,0,1-3.25-3.41,3.13,3.13,0,0,1,3.25-3.38,3,3,0,0,1,3.16,3.15,4.63,4.63,0,0,1,0,.65h-5.25a2.06,2.06,0,0,0,2.13,2.07,1.81,1.81,0,0,0,1.85-1.21h1.18A3,3,0,0,1,281.68,9.27ZM279.56,5.4h4.15a1.93,1.93,0,0,0-2.08-2A2,2,0,0,0,279.56,5.4Z"/><path class="cls-1" d="M289.69,3.49h-.85v-.9h.85V2.12c0-1.46.72-2.12,2.4-2.12V.91c-1,0-1.31.36-1.31,1.21v.47h1.38v.9h-1.38V9.16h-1.09Z"/><path class="cls-1" d="M296.3,9.27A3.2,3.2,0,0,1,293,5.86a3.33,3.33,0,1,1,6.65,0A3.26,3.26,0,0,1,296.3,9.27Zm0-1a2.23,2.23,0,0,0,2.25-2.45,2.21,2.21,0,0,0-2.22-2.43,2.18,2.18,0,0,0-2.19,2.43A2.17,2.17,0,0,0,296.3,8.31Z"/><path class="cls-1" d="M302.2,9.16h-1.09V2.59h1.09V3.66a2.23,2.23,0,0,1,2.13-1.19V3.6H304c-1,0-1.84.47-1.84,2Z"/><path class="cls-1" d="M312.34,2.48a3.11,3.11,0,0,1,3.12,3.37,3.16,3.16,0,0,1-3.12,3.42A2.75,2.75,0,0,1,309.88,8V9.16h-1.09V.29h1.09V3.81A2.79,2.79,0,0,1,312.34,2.48Zm-.23,1a2.26,2.26,0,0,0-2.23,2.43,2.24,2.24,0,1,0,4.47,0A2.23,2.23,0,0,0,312.11,3.43Z"/><path class="cls-1" d="M319.61,2.48a2.73,2.73,0,0,1,2.45,1.31V2.59h1.1V9.16h-1.1V7.94a2.74,2.74,0,0,1-2.46,1.33,3.16,3.16,0,0,1-3.1-3.42A3.11,3.11,0,0,1,319.61,2.48Zm.22,1a2.22,2.22,0,0,0-2.22,2.42,2.24,2.24,0,1,0,4.45,0A2.25,2.25,0,0,0,319.83,3.43Z"/><path class="cls-1" d="M329.83,5.45a1.77,1.77,0,0,0-1.84-2c-1.11,0-1.88.69-1.88,2.11V9.16H325V2.59h1.09v.94a2.41,2.41,0,0,1,2.11-1.06,2.56,2.56,0,0,1,2.69,2.82V9.16h-1.08Z"/><path class="cls-1" d="M332.7.29h1.09V5.5l2.53-2.91h1.52l-3.09,3.27,3.1,3.3h-1.48l-2.58-2.9v2.9H332.7Z"/><path class="cls-1" d="M340,9.16h-1.09V2.59H340V3.66a2.22,2.22,0,0,1,2.12-1.19V3.6h-.29c-1,0-1.83.47-1.83,2Z"/><path class="cls-1" d="M349.18,9.16h-1.09v-1A2.4,2.4,0,0,1,346,9.26a2.57,2.57,0,0,1-2.7-2.82V2.59h1.08V6.3a1.76,1.76,0,0,0,1.84,2c1.12,0,1.88-.69,1.88-2.11V2.59h1.09Z"/><path class="cls-1" d="M354.58,2.48a3.12,3.12,0,0,1,3.12,3.37,3.17,3.17,0,0,1-3.12,3.42A2.85,2.85,0,0,1,352.12,8v4.33H351V2.59h1.09V3.8A2.8,2.8,0,0,1,354.58,2.48Zm-.23,1a2.26,2.26,0,0,0-2.23,2.43,2.24,2.24,0,1,0,4.46,0A2.22,2.22,0,0,0,354.35,3.43Z"/><path class="cls-1" d="M359.38,3.49h-.85v-.9h.85V.94h1.1V2.59h1.71v.9h-1.71V7.36c0,.65.23.88.91.88h.8v.92h-1c-1.17,0-1.83-.48-1.83-1.8Z"/><path class="cls-1" d="M366.31,2.48a2.86,2.86,0,0,1,3,2.22h-1.17a1.79,1.79,0,0,0-1.86-1.29c-1.2,0-2.09.85-2.09,2.45s.89,2.49,2.09,2.49a1.77,1.77,0,0,0,1.86-1.3h1.17a2.92,2.92,0,0,1-3,2.22,3.14,3.14,0,0,1-3.21-3.41A3.13,3.13,0,0,1,366.31,2.48Z"/><path class="cls-1" d="M375.33,2.59h1.13l-4,9.67h-1.13l1.3-3.17L370,2.59h1.21l2.06,5.33Z"/><path class="cls-1" d="M381.85,9.16h-1.09V2.59h1.09V3.66A2.22,2.22,0,0,1,384,2.47V3.6h-.29c-1,0-1.83.47-1.83,2Z"/><path class="cls-1" d="M388.07,9.27a3.17,3.17,0,0,1-3.25-3.41,3.13,3.13,0,0,1,3.25-3.38,3,3,0,0,1,3.16,3.15,4.63,4.63,0,0,1,0,.65h-5.25a2.06,2.06,0,0,0,2.13,2.07,1.81,1.81,0,0,0,1.85-1.21h1.18A3,3,0,0,1,388.07,9.27ZM386,5.4h4.15a1.93,1.93,0,0,0-2.07-2A2,2,0,0,0,386,5.4Z"/><path class="cls-1" d="M392.67.29h1.09V9.16h-1.09Z"/><path class="cls-1" d="M395.44.78a.74.74,0,1,1,1.47,0,.74.74,0,1,1-1.47,0Zm.18,1.81h1.09V9.16h-1.09Z"/><path class="cls-1" d="M401.42,9.27a3.17,3.17,0,0,1-3.25-3.41,3.13,3.13,0,0,1,3.25-3.38,3,3,0,0,1,3.15,3.15c0,.23,0,.43,0,.65h-5.26a2.07,2.07,0,0,0,2.14,2.07,1.81,1.81,0,0,0,1.84-1.21h1.18A3,3,0,0,1,401.42,9.27ZM399.29,5.4h4.15a1.91,1.91,0,0,0-2.07-2A2,2,0,0,0,399.29,5.4Z"/><path class="cls-1" d="M406.22,3.49h-.85v-.9h.85V2.12c0-1.46.72-2.12,2.4-2.12V.91c-1,0-1.31.36-1.31,1.21v.47h1.38v.9h-1.38V9.16h-1.09Z"/><path class="cls-1" d="M419,9.16h-1.1v-1a2.4,2.4,0,0,1-2.09,1.07,2.56,2.56,0,0,1-2.7-2.82V2.59h1.08V6.3a1.76,1.76,0,0,0,1.83,2c1.13,0,1.88-.69,1.88-2.11V2.59H419Z"/><path class="cls-1" d="M425.66,5.45a1.77,1.77,0,0,0-1.84-2c-1.11,0-1.88.69-1.88,2.11V9.16h-1.09V2.59h1.09v.94a2.41,2.41,0,0,1,2.11-1.06,2.56,2.56,0,0,1,2.69,2.82V9.16h-1.08Z"/><path class="cls-1" d="M431.25,2.48a2.85,2.85,0,0,1,2.43,1.29V.29h1.11V9.16h-1.11V7.93a2.68,2.68,0,0,1-2.44,1.34,3.16,3.16,0,0,1-3.12-3.42A3.11,3.11,0,0,1,431.25,2.48Zm.2,1a2.22,2.22,0,0,0-2.22,2.42,2.24,2.24,0,1,0,4.45,0A2.25,2.25,0,0,0,431.45,3.43Z"/><path class="cls-1" d="M439.48,9.27a3.17,3.17,0,0,1-3.25-3.41,3.13,3.13,0,0,1,3.25-3.38,3,3,0,0,1,3.16,3.15c0,.23,0,.43,0,.65h-5.25a2.06,2.06,0,0,0,2.13,2.07,1.82,1.82,0,0,0,1.85-1.21h1.17A2.94,2.94,0,0,1,439.48,9.27ZM437.36,5.4h4.15a1.93,1.93,0,0,0-2.08-2A2,2,0,0,0,437.36,5.4Z"/><path class="cls-1" d="M445.17,9.16h-1.09V2.59h1.09V3.66a2.22,2.22,0,0,1,2.12-1.19V3.6H447c-1.05,0-1.84.47-1.84,2Z"/><path class="cls-1" d="M452,3.49h-.85v-.9H452V.94h1.09V2.59h1.71v.9h-1.71V7.36c0,.65.24.88.91.88h.8v.92h-1c-1.16,0-1.82-.48-1.82-1.8Z"/><path class="cls-1" d="M456.13.29h1.09V3.54a2.47,2.47,0,0,1,2.17-1.07A2.54,2.54,0,0,1,462,5.29V9.16h-1.08V5.45a1.77,1.77,0,0,0-1.84-2c-1.11,0-1.88.69-1.88,2.11V9.16h-1.09Z"/><path class="cls-1" d="M466.65,9.27a3.17,3.17,0,0,1-3.25-3.41,3.13,3.13,0,0,1,3.25-3.38,3,3,0,0,1,3.15,3.15c0,.23,0,.43,0,.65h-5.26a2.07,2.07,0,0,0,2.14,2.07,1.82,1.82,0,0,0,1.85-1.21h1.17A3,3,0,0,1,466.65,9.27ZM464.53,5.4h4.15a1.93,1.93,0,0,0-2.08-2A2,2,0,0,0,464.53,5.4Z"/><path class="cls-1" d="M477.57,9.16h-3.12V.8h3c1.76,0,2.65,1,2.65,2.13a2,2,0,0,1-1.46,1.93,2.08,2.08,0,0,1,1.65,2.06C480.29,8.18,479.3,9.16,477.57,9.16Zm-.22-7.46h-1.81V4.41h1.84c1,0,1.6-.5,1.6-1.35S478.42,1.7,477.35,1.7Zm.09,3.61h-1.9v3h1.93c1.08,0,1.73-.54,1.73-1.45S478.5,5.31,477.44,5.31Z"/><path class="cls-1" d="M484.52,2.48A2.72,2.72,0,0,1,487,3.79V2.59h1.11V9.16H487V7.94a2.72,2.72,0,0,1-2.46,1.33,3.16,3.16,0,0,1-3.1-3.42A3.11,3.11,0,0,1,484.52,2.48Zm.21,1a2.22,2.22,0,0,0-2.22,2.42,2.24,2.24,0,1,0,4.45,0A2.25,2.25,0,0,0,484.73,3.43Z"/><path class="cls-1" d="M494.73,5.45c0-1.35-.73-2-1.84-2S491,4.11,491,5.53V9.16h-1.09V2.59H491v.94a2.41,2.41,0,0,1,2.11-1.06,2.56,2.56,0,0,1,2.69,2.82V9.16h-1.08Z"/><path class="cls-1" d="M497.6.29h1.09V5.5l2.53-2.91h1.52l-3.09,3.27,3.11,3.3h-1.49l-2.58-2.9v2.9H497.6Z"/><path class="cls-1" d="M504.87,9.16h-1.09V2.59h1.09V3.66A2.22,2.22,0,0,1,507,2.47V3.6h-.29c-1,0-1.83.47-1.83,2Z"/><path class="cls-1" d="M514.08,9.16H513v-1a2.4,2.4,0,0,1-2.1,1.07,2.57,2.57,0,0,1-2.7-2.82V2.59h1.08V6.3a1.76,1.76,0,0,0,1.84,2c1.13,0,1.88-.69,1.88-2.11V2.59h1.09Z"/><path class="cls-1" d="M519.48,2.48a3.11,3.11,0,0,1,3.12,3.37,3.16,3.16,0,0,1-3.12,3.42A2.83,2.83,0,0,1,517,8v4.33h-1.1V2.59H517V3.8A2.78,2.78,0,0,1,519.48,2.48Zm-.22,1A2.25,2.25,0,0,0,517,5.86a2.24,2.24,0,1,0,4.46,0A2.22,2.22,0,0,0,519.26,3.43Z"/><path class="cls-1" d="M524.29,3.49h-.86v-.9h.86V.94h1.09V2.59h1.71v.9h-1.71V7.36c0,.65.24.88.91.88h.8v.92h-1c-1.16,0-1.82-.48-1.82-1.8Z"/><path class="cls-1" d="M531.21,2.48a2.85,2.85,0,0,1,3,2.22h-1.17a1.79,1.79,0,0,0-1.86-1.29c-1.2,0-2.09.85-2.09,2.45s.89,2.49,2.09,2.49a1.77,1.77,0,0,0,1.86-1.3h1.17a2.91,2.91,0,0,1-3,2.22A3.13,3.13,0,0,1,528,5.86,3.12,3.12,0,0,1,531.21,2.48Z"/><path class="cls-1" d="M540.23,2.59h1.13l-4,9.67h-1.13l1.3-3.17-2.65-6.5h1.21l2.06,5.33Z"/><path class="cls-1" d="M549.42.7a4,4,0,0,1,3.88,2.53H552a2.63,2.63,0,0,0-2.57-1.57,3,3,0,0,0-3,3.32,3,3,0,0,0,3,3.31A2.65,2.65,0,0,0,552,6.73h1.31a3.94,3.94,0,0,1-3.88,2.5A4.09,4.09,0,0,1,545.25,5,4.11,4.11,0,0,1,549.42.7Z"/><path class="cls-1" d="M557.79,9.27a3.2,3.2,0,0,1-3.28-3.41,3.33,3.33,0,1,1,6.65,0A3.26,3.26,0,0,1,557.79,9.27Zm0-1A2.23,2.23,0,0,0,560,5.86a2.21,2.21,0,0,0-2.22-2.43,2.18,2.18,0,0,0-2.19,2.43A2.17,2.17,0,0,0,557.79,8.31Z"/><path class="cls-1" d="M565.32,2.48a2.87,2.87,0,0,1,2.44,1.29V.29h1.1V9.16h-1.1V7.93a2.71,2.71,0,0,1-2.45,1.34,3.17,3.17,0,0,1-3.12-3.42A3.12,3.12,0,0,1,565.32,2.48Zm.21,1a2.22,2.22,0,0,0-2.22,2.42,2.24,2.24,0,1,0,4.45,0A2.25,2.25,0,0,0,565.53,3.43Z"/><path class="cls-1" d="M573.56,9.27a3.16,3.16,0,0,1-3.25-3.41,3.13,3.13,0,0,1,3.25-3.38,3,3,0,0,1,3.15,3.15,4.63,4.63,0,0,1,0,.65h-5.25a2.07,2.07,0,0,0,2.14,2.07,1.81,1.81,0,0,0,1.84-1.21h1.18A3,3,0,0,1,573.56,9.27ZM571.43,5.4h4.15a1.92,1.92,0,0,0-2.07-2A2,2,0,0,0,571.43,5.4Z"/><path class="cls-1" d="M578.5,9.23a.74.74,0,1,1,.72-.74A.73.73,0,0,1,578.5,9.23Z"/><path class="cls-1" d="M583.36.8H589v.89h-2.28V9.16h-1.09V1.69h-2.29Z"/><path class="cls-1" d="M594.9,2.59H596l-4,9.67h-1.13l1.3-3.17-2.65-6.5h1.21l2.06,5.33Z"/><path class="cls-1" d="M600.67,2.48a3.11,3.11,0,0,1,3.12,3.37,3.16,3.16,0,0,1-3.12,3.42A2.83,2.83,0,0,1,598.22,8v4.33h-1.09V2.59h1.09V3.8A2.78,2.78,0,0,1,600.67,2.48Zm-.22,1a2.25,2.25,0,0,0-2.23,2.43,2.24,2.24,0,1,0,4.46,0A2.22,2.22,0,0,0,600.45,3.43Z"/><path class="cls-1" d="M605.06.78a.73.73,0,1,1,1.46,0,.73.73,0,1,1-1.46,0Zm.18,1.81h1.09V9.16h-1.09Z"/><path class="cls-1" d="M611,2.48a2.87,2.87,0,0,1,3,2.22h-1.18A1.78,1.78,0,0,0,611,3.41c-1.2,0-2.08.85-2.08,2.45s.88,2.49,2.08,2.49a1.76,1.76,0,0,0,1.86-1.3H614a2.93,2.93,0,0,1-3,2.22,3.13,3.13,0,0,1-3.2-3.41A3.12,3.12,0,0,1,611,2.48Z"/><path class="cls-1" d="M618.18,2.48a2.73,2.73,0,0,1,2.45,1.31V2.59h1.1V9.16h-1.1V7.94a2.75,2.75,0,0,1-2.46,1.33,3.17,3.17,0,0,1-3.11-3.42A3.12,3.12,0,0,1,618.18,2.48Zm.22,1a2.22,2.22,0,0,0-2.22,2.42,2.24,2.24,0,1,0,4.45,0A2.25,2.25,0,0,0,618.4,3.43Z"/><path class="cls-1" d="M623.58.29h1.1V9.16h-1.1Z"/><path class="cls-1" d="M626.54.29h1.09V9.16h-1.09Z"/><path class="cls-1" d="M634,2.59h1.13l-4,9.67h-1.13l1.3-3.17-2.65-6.5h1.21L632,7.92Z"/><path class="cls-1" d="M636.17,7.65h1.2L636,10.88h-.73Z"/><path class="cls-1" d="M641,2.59h1.12l1.51,5.52,1.63-5.52h1.12L648,8.12l1.49-5.53h1.08l-2.05,6.57H647.4L645.82,4l-1.59,5.21h-1.12Z"/><path class="cls-1" d="M654.51,9.27a3.16,3.16,0,0,1-3.25-3.41,3.13,3.13,0,0,1,3.25-3.38,3,3,0,0,1,3.15,3.15,4.63,4.63,0,0,1,0,.65h-5.25a2.07,2.07,0,0,0,2.14,2.07,1.81,1.81,0,0,0,1.84-1.21h1.18A3,3,0,0,1,654.51,9.27ZM652.38,5.4h4.15a1.92,1.92,0,0,0-2.07-2A2,2,0,0,0,652.38,5.4Z"/><path class="cls-1" d="M665.1,2.48a2.87,2.87,0,0,1,3,2.22H667a1.79,1.79,0,0,0-1.86-1.29c-1.2,0-2.08.85-2.08,2.45s.88,2.49,2.08,2.49A1.77,1.77,0,0,0,667,7.05h1.18a2.93,2.93,0,0,1-3,2.22,3.13,3.13,0,0,1-3.2-3.41A3.12,3.12,0,0,1,665.1,2.48Z"/><path class="cls-1" d="M672.3,2.48a2.73,2.73,0,0,1,2.45,1.31V2.59h1.1V9.16h-1.1V7.94a2.75,2.75,0,0,1-2.46,1.33,3.17,3.17,0,0,1-3.11-3.42A3.12,3.12,0,0,1,672.3,2.48Zm.22,1a2.22,2.22,0,0,0-2.22,2.42,2.24,2.24,0,1,0,4.45,0A2.25,2.25,0,0,0,672.52,3.43Z"/><path class="cls-1" d="M682.51,5.45c0-1.35-.73-2-1.83-2s-1.89.69-1.89,2.11V9.16H677.7V2.59h1.09v.94a2.44,2.44,0,0,1,2.12-1.06,2.55,2.55,0,0,1,2.68,2.82V9.16h-1.08Z"/><path class="cls-1" d="M688.59.29h1.09V3.54a2.47,2.47,0,0,1,2.17-1.07,2.54,2.54,0,0,1,2.63,2.82V9.16H693.4V5.45c0-1.35-.73-2-1.84-2s-1.88.69-1.88,2.11V9.16h-1.09Z"/><path class="cls-1" d="M699.11,9.27a3.17,3.17,0,0,1-3.25-3.41,3.13,3.13,0,0,1,3.25-3.38,3,3,0,0,1,3.15,3.15c0,.23,0,.43,0,.65H697a2.06,2.06,0,0,0,2.13,2.07A1.82,1.82,0,0,0,701,7.14h1.17A2.94,2.94,0,0,1,699.11,9.27ZM697,5.4h4.15a1.93,1.93,0,0,0-2.08-2A2,2,0,0,0,697,5.4Z"/><path class="cls-1" d="M703.71.29h1.09V9.16h-1.09Z"/><path class="cls-1" d="M710.21,2.48a3.12,3.12,0,0,1,3.12,3.37,3.17,3.17,0,0,1-3.12,3.42A2.85,2.85,0,0,1,707.75,8v4.33h-1.09V2.59h1.09V3.8A2.8,2.8,0,0,1,710.21,2.48Zm-.23,1a2.25,2.25,0,0,0-2.23,2.43,2.24,2.24,0,1,0,4.46,0A2.22,2.22,0,0,0,710,3.43Z"/><path class="cls-1" d="M720.77,2.48a2.85,2.85,0,0,1,3,2.22h-1.17a1.79,1.79,0,0,0-1.86-1.29c-1.2,0-2.09.85-2.09,2.45s.89,2.49,2.09,2.49a1.77,1.77,0,0,0,1.86-1.3h1.17a2.91,2.91,0,0,1-3,2.22,3.13,3.13,0,0,1-3.2-3.41A3.12,3.12,0,0,1,720.77,2.48Z"/><path class="cls-1" d="M725.26.29h1.09V9.16h-1.09Z"/><path class="cls-1" d="M728,.78a.74.74,0,1,1,1.47,0,.74.74,0,1,1-1.47,0Zm.18,1.81h1.09V9.16h-1.09Z"/><path class="cls-1" d="M734,9.27a3.17,3.17,0,0,1-3.25-3.41A3.13,3.13,0,0,1,734,2.48a3,3,0,0,1,3.16,3.15,4.63,4.63,0,0,1,0,.65h-5.25A2.06,2.06,0,0,0,734,8.35a1.81,1.81,0,0,0,1.85-1.21H737A3,3,0,0,1,734,9.27ZM731.88,5.4H736a1.93,1.93,0,0,0-2.07-2A2,2,0,0,0,731.88,5.4Z"/><path class="cls-1" d="M743.41,5.45c0-1.35-.73-2-1.83-2s-1.89.69-1.89,2.11V9.16H738.6V2.59h1.09v.94a2.44,2.44,0,0,1,2.12-1.06,2.55,2.55,0,0,1,2.68,2.82V9.16h-1.08Z"/><path class="cls-1" d="M746.52,3.49h-.85v-.9h.85V.94h1.09V2.59h1.72v.9h-1.72V7.36c0,.65.24.88.92.88h.8v.92h-1c-1.17,0-1.83-.48-1.83-1.8Z"/><path class="cls-1" d="M753,9.27c-1.54,0-2.62-.84-2.69-2h1.13c.06.64.62,1.12,1.55,1.12s1.34-.43,1.34-1c0-1.47-3.89-.62-3.89-3.06,0-1,1-1.84,2.41-1.84a2.21,2.21,0,0,1,2.49,2.07h-1.1a1.26,1.26,0,0,0-1.42-1.14c-.81,0-1.29.38-1.29.91,0,1.56,3.82.71,3.87,3.06C755.38,8.46,754.43,9.27,753,9.27Z"/><path class="cls-1" d="M759.34,2.59h1.12L762,8.11l1.63-5.52h1.11l1.6,5.53,1.48-5.53h1.08l-2,6.57H765.7L764.11,4l-1.58,5.21H761.4Z"/><path class="cls-1" d="M769.78.78a.73.73,0,1,1,1.46,0,.73.73,0,1,1-1.46,0ZM770,2.59h1.09V9.16H770Z"/><path class="cls-1" d="M773.15,3.49h-.85v-.9h.85V.94h1.09V2.59H776v.9h-1.72V7.36c0,.65.24.88.91.88H776v.92h-1c-1.16,0-1.82-.48-1.82-1.8Z"/><path class="cls-1" d="M777.28.29h1.09V3.54a2.47,2.47,0,0,1,2.17-1.07,2.54,2.54,0,0,1,2.63,2.82V9.16h-1.08V5.45c0-1.35-.73-2-1.84-2s-1.88.69-1.88,2.11V9.16h-1.09Z"/><path class="cls-1" d="M788.37,3.49h-.86v-.9h.86V2.12c0-1.46.72-2.12,2.4-2.12V.91c-1,0-1.31.36-1.31,1.21v.47h1.38v.9h-1.38V9.16h-1.09Z"/><path class="cls-1" d="M791.93.78a.73.73,0,1,1,1.46,0,.73.73,0,1,1-1.46,0Zm.18,1.81h1.09V9.16h-1.09Z"/><path class="cls-1" d="M799.87,5.45c0-1.35-.73-2-1.83-2s-1.89.69-1.89,2.11V9.16h-1.09V2.59h1.09v.94a2.42,2.42,0,0,1,2.11-1.06A2.55,2.55,0,0,1,801,5.29V9.16h-1.08Z"/><path class="cls-1" d="M805.45,2.48a2.73,2.73,0,0,1,2.45,1.31V2.59H809V9.16h-1.1V7.94a2.75,2.75,0,0,1-2.46,1.33,3.17,3.17,0,0,1-3.11-3.42A3.12,3.12,0,0,1,805.45,2.48Zm.22,1a2.22,2.22,0,0,0-2.22,2.42,2.24,2.24,0,1,0,4.45,0A2.25,2.25,0,0,0,805.67,3.43Z"/><path class="cls-1" d="M815.66,5.45c0-1.35-.73-2-1.83-2S812,4.11,812,5.53V9.16h-1.1V2.59H812v.94a2.41,2.41,0,0,1,2.11-1.06,2.55,2.55,0,0,1,2.68,2.82V9.16h-1.08Z"/><path class="cls-1" d="M821.33,2.48a2.85,2.85,0,0,1,3,2.22h-1.17a1.79,1.79,0,0,0-1.86-1.29c-1.2,0-2.09.85-2.09,2.45s.89,2.49,2.09,2.49a1.77,1.77,0,0,0,1.86-1.3h1.17a2.91,2.91,0,0,1-3,2.22,3.13,3.13,0,0,1-3.2-3.41A3.12,3.12,0,0,1,821.33,2.48Z"/><path class="cls-1" d="M825.64.78a.73.73,0,1,1,1.46,0,.73.73,0,1,1-1.46,0Zm.18,1.81h1.09V9.16h-1.09Z"/><path class="cls-1" d="M831.48,2.48a2.75,2.75,0,0,1,2.45,1.31V2.59H835V9.16h-1.1V7.94a2.75,2.75,0,0,1-2.46,1.33,3.17,3.17,0,0,1-3.11-3.42A3.12,3.12,0,0,1,831.48,2.48Zm.22,1a2.22,2.22,0,0,0-2.22,2.42,2.24,2.24,0,1,0,4.45,0A2.25,2.25,0,0,0,831.7,3.43Z"/><path class="cls-1" d="M836.88.29H838V9.16h-1.09Z"/><path class="cls-1" d="M845.76,2.48a2.88,2.88,0,0,1,2.44,1.29V.29h1.1V9.16h-1.1V7.93a2.71,2.71,0,0,1-2.45,1.34,3.17,3.17,0,0,1-3.12-3.42A3.12,3.12,0,0,1,845.76,2.48Zm.2,1a2.21,2.21,0,0,0-2.21,2.42,2.24,2.24,0,1,0,4.45,0A2.26,2.26,0,0,0,846,3.43Z"/><path class="cls-1" d="M851,.78a.73.73,0,1,1,1.46,0,.73.73,0,1,1-1.46,0Zm.18,1.81h1.09V9.16h-1.09Z"/><path class="cls-1" d="M854.3,3.49h-.85v-.9h.85V2.12C854.3.66,855,0,856.7,0V.91c-1,0-1.3.36-1.3,1.21v.47h1.38v.9H855.4V9.16h-1.1Z"/><path class="cls-1" d="M858.25,3.49h-.85v-.9h.85V2.12c0-1.46.72-2.12,2.4-2.12V.91c-1,0-1.31.36-1.31,1.21v.47h1.38v.9h-1.38V9.16h-1.09Z"/><path class="cls-1" d="M861.82.78a.73.73,0,1,1,1.46,0,.73.73,0,1,1-1.46,0ZM862,2.59h1.09V9.16H862Z"/><path class="cls-1" d="M867.74,2.48a2.86,2.86,0,0,1,3,2.22H869.6a1.78,1.78,0,0,0-1.86-1.29c-1.2,0-2.08.85-2.08,2.45s.88,2.49,2.08,2.49a1.76,1.76,0,0,0,1.86-1.3h1.18a2.92,2.92,0,0,1-3,2.22,3.13,3.13,0,0,1-3.2-3.41A3.12,3.12,0,0,1,867.74,2.48Z"/><path class="cls-1" d="M878.06,9.16H877v-1a2.4,2.4,0,0,1-2.1,1.07,2.57,2.57,0,0,1-2.7-2.82V2.59h1.08V6.3a1.76,1.76,0,0,0,1.84,2c1.12,0,1.88-.69,1.88-2.11V2.59h1.09Z"/><path class="cls-1" d="M879.91.29H881V9.16h-1.09Z"/><path class="cls-1" d="M883.1,3.49h-.85v-.9h.85V.94h1.1V2.59h1.71v.9H884.2V7.36c0,.65.24.88.91.88h.8v.92h-1c-1.17,0-1.83-.48-1.83-1.8Z"/><path class="cls-1" d="M887.05.78a.74.74,0,1,1,1.47,0,.74.74,0,1,1-1.47,0Zm.18,1.81h1.09V9.16h-1.09Z"/><path class="cls-1" d="M893,9.27a3.17,3.17,0,0,1-3.25-3.41A3.13,3.13,0,0,1,893,2.48a3,3,0,0,1,3.15,3.15c0,.23,0,.43,0,.65h-5.26A2.07,2.07,0,0,0,893,8.35a1.83,1.83,0,0,0,1.85-1.21h1.17A3,3,0,0,1,893,9.27ZM890.91,5.4h4.14a1.91,1.91,0,0,0-2.07-2A2,2,0,0,0,890.91,5.4Z"/><path class="cls-1" d="M900,9.27c-1.53,0-2.61-.84-2.69-2h1.13c.06.64.63,1.12,1.55,1.12s1.34-.43,1.34-1c0-1.47-3.88-.62-3.88-3.06,0-1,.94-1.84,2.41-1.84a2.2,2.2,0,0,1,2.48,2.07H901.2a1.27,1.27,0,0,0-1.43-1.14c-.8,0-1.28.38-1.28.91,0,1.56,3.81.71,3.86,3.06C902.35,8.46,901.4,9.27,900,9.27Z"/><path class="cls-1" d="M904.24,9.23a.74.74,0,1,1,.72-.74A.73.73,0,0,1,904.24,9.23Z"/><path class="cls-1" d="M6,19.77H1.74v3.79H.65V15.2H1.74v3.67H6V15.2H7.09v8.36H6Z"/><path class="cls-1" d="M11.81,23.67a3.2,3.2,0,0,1-3.28-3.41,3.22,3.22,0,0,1,3.32-3.38,3.21,3.21,0,0,1,3.33,3.38A3.26,3.26,0,0,1,11.81,23.67Zm0-1a2.23,2.23,0,0,0,2.25-2.45,2.21,2.21,0,0,0-2.22-2.43,2.18,2.18,0,0,0-2.19,2.43A2.17,2.17,0,0,0,11.81,22.71Z"/><path class="cls-1" d="M15.84,17H17l1.51,5.52L20.1,17h1.11l1.6,5.53L24.3,17h1.08l-2.06,6.57H22.2l-1.59-5.21L19,23.56H17.9Z"/><path class="cls-1" d="M29.3,23.67a3.17,3.17,0,0,1-3.25-3.41,3.13,3.13,0,0,1,3.25-3.38A3,3,0,0,1,32.46,20c0,.24,0,.44,0,.66H27.17a2.06,2.06,0,0,0,2.13,2.07,1.81,1.81,0,0,0,1.85-1.21h1.17A2.94,2.94,0,0,1,29.3,23.67ZM27.18,19.8h4.15a1.93,1.93,0,0,0-2.08-2A2,2,0,0,0,27.18,19.8Z"/><path class="cls-1" d="M34.3,17l2.05,5.57,2-5.57h1.16L37,23.56H35.7L33.12,17Z"/><path class="cls-1" d="M43.47,23.67a3.17,3.17,0,0,1-3.25-3.41,3.13,3.13,0,0,1,3.25-3.38A3,3,0,0,1,46.63,20a4.68,4.68,0,0,1,0,.66H41.34a2.06,2.06,0,0,0,2.13,2.07,1.81,1.81,0,0,0,1.85-1.21H46.5A3,3,0,0,1,43.47,23.67ZM41.35,19.8H45.5a1.93,1.93,0,0,0-2.07-2A2,2,0,0,0,41.35,19.8Z"/><path class="cls-1" d="M49.16,23.56H48.07V17h1.09v1.07a2.22,2.22,0,0,1,2.13-1.19V18H51c-1,0-1.84.47-1.84,2Z"/><path class="cls-1" d="M52.48,22.05h1.19l-1.34,3.23H51.6Z"/><path class="cls-1" d="M59.22,23.56H58.13V17h1.09v1.07a2.22,2.22,0,0,1,2.12-1.19V18h-.29c-1,0-1.83.47-1.83,2Z"/><path class="cls-1" d="M65.45,23.67a3.17,3.17,0,0,1-3.26-3.41,3.14,3.14,0,0,1,3.26-3.38A3,3,0,0,1,68.6,20a4.68,4.68,0,0,1,0,.66H63.31a2.07,2.07,0,0,0,2.14,2.07,1.81,1.81,0,0,0,1.84-1.21h1.18A3,3,0,0,1,65.45,23.67ZM63.32,19.8h4.15a1.93,1.93,0,0,0-2.07-2A2,2,0,0,0,63.32,19.8Z"/><path class="cls-1" d="M72.37,23.67c-1.54,0-2.62-.84-2.69-2h1.13c.06.64.62,1.12,1.55,1.12s1.34-.43,1.34-1c0-1.47-3.89-.62-3.89-3.06,0-1,1-1.84,2.42-1.84A2.2,2.2,0,0,1,74.71,19H73.62a1.27,1.27,0,0,0-1.43-1.14c-.8,0-1.28.38-1.28.91,0,1.56,3.81.71,3.86,3.06C74.77,22.86,73.82,23.67,72.37,23.67Z"/><path class="cls-1" d="M82.14,23.56H81v-1A2.42,2.42,0,0,1,79,23.66a2.56,2.56,0,0,1-2.7-2.82V17h1.08V20.7a1.76,1.76,0,0,0,1.83,2C80.29,22.71,81,22,81,20.6V17h1.1Z"/><path class="cls-1" d="M84,14.69h1.09v8.87H84Z"/><path class="cls-1" d="M87.18,17.89h-.85V17h.85V15.34h1.09V17H90v.9H88.27v3.87c0,.65.24.88.91.88H90v.92H89c-1.16,0-1.82-.48-1.82-1.8Z"/><path class="cls-1" d="M93.63,23.67c-1.53,0-2.61-.84-2.68-2h1.12c.06.64.63,1.12,1.55,1.12s1.34-.43,1.34-1c0-1.47-3.88-.62-3.88-3.06,0-1,1-1.84,2.41-1.84A2.2,2.2,0,0,1,96,19H94.88a1.27,1.27,0,0,0-1.43-1.14c-.8,0-1.28.38-1.28.91,0,1.56,3.81.71,3.86,3.06C96,22.86,95.08,23.67,93.63,23.67Z"/><path class="cls-1" d="M110.26,19.85c0-1.35-.72-2-1.8-2s-1.86.71-1.86,2.12v3.62h-1.08V19.85c0-1.35-.72-2-1.8-2s-1.85.71-1.85,2.12v3.62h-1.1V17h1.1v1a2.36,2.36,0,0,1,2.07-1.07,2.47,2.47,0,0,1,2.41,1.46,2.44,2.44,0,0,1,2.33-1.46,2.54,2.54,0,0,1,2.66,2.82v3.87h-1.08Z"/><path class="cls-1" d="M115.84,16.88a2.73,2.73,0,0,1,2.45,1.31V17h1.11v6.57h-1.11V22.34a2.74,2.74,0,0,1-2.46,1.33,3.16,3.16,0,0,1-3.1-3.42A3.11,3.11,0,0,1,115.84,16.88Zm.22.95a2.22,2.22,0,0,0-2.22,2.42,2.24,2.24,0,1,0,4.45,0A2.25,2.25,0,0,0,116.06,17.83Z"/><path class="cls-1" d="M125.78,17h1.13l-4,9.67h-1.13l1.3-3.17L120.47,17h1.21l2.06,5.33Z"/><path class="cls-1" d="M131.6,17l2.05,5.57,2-5.57h1.16l-2.57,6.57H133L130.43,17Z"/><path class="cls-1" d="M140.65,16.88a2.75,2.75,0,0,1,2.45,1.31V17h1.1v6.57h-1.1V22.34a2.75,2.75,0,0,1-2.46,1.33,3.17,3.17,0,0,1-3.11-3.42A3.12,3.12,0,0,1,140.65,16.88Zm.21.95a2.22,2.22,0,0,0-2.21,2.42,2.24,2.24,0,1,0,4.45,0A2.26,2.26,0,0,0,140.86,17.83Z"/><path class="cls-1" d="M147.14,23.56h-1.09V17h1.09v1.07a2.22,2.22,0,0,1,2.12-1.19V18H149c-1,0-1.84.47-1.84,2Z"/><path class="cls-1" d="M155.06,17h1.13l-4,9.67H151.1l1.3-3.17L149.75,17H151L153,22.32Z"/><path class="cls-1" d="M157.63,23.63a.74.74,0,1,1,.72-.74A.73.73,0,0,1,157.63,23.63Z"/></g></g></svg>