<svg id="Layer_1" data-name="Layer 1" xmlns="http://www.w3.org/2000/svg" viewBox="0 0 800 800"><defs><style>.cls-1{fill:#7154a3;}.cls-2{fill:#fff;}</style></defs><title>notMap</title><rect class="cls-1" width="800" height="800"/><path class="cls-2" d="M143.859,340.882l4.782,4.782-3.424,5.053,33.962,33.962-7.907,7.906-42.6-10.65-.137.19,21.029,21.028,5.054-3.423,4.755,4.754L142.99,420.867l-4.754-4.754,3.4-5.027L113.24,382.7l-5.026,3.4-4.782-4.782,4.211-4.211,7.933-7.933,42.6,10.65.135-.19-21-21-5.053,3.422-4.781-4.781,12.144-12.144Z"/><path class="cls-2" d="M202.652,322.245q8.7,8.694,9.4,19.343t-7.336,18.693q-8.015,8.015-18.623,7.267t-19.3-9.441l-.6-.6q-8.639-8.639-9.427-19.262t7.227-18.639q8.043-8.041,18.734-7.321t19.33,9.359ZM194.1,329.5q-6.139-6.14-12.525-7.416T170.186,325.8q-5,5-3.655,11.262t7.54,12.456l.653.653q6.249,6.249,12.551,7.58t11.276-3.64q5.025-5.026,3.735-11.371t-7.539-12.593Z"/><path class="cls-2" d="M219.851,264.891l10.542,10.542-6.086,6.086-4.754-4.1-7.282,7.281,27.875,27.875,5.053-3.423,4.755,4.754-16.41,16.41-4.755-4.754,3.424-5.054L204.338,292.63l-7.254,7.254,4.1,4.755-6.059,6.059-10.541-10.542Z"/><path class="cls-2" d="M270.467,283.882l2.418-3.234-22.361-46.431,8.124-8.124L305,248.535l3.233-2.418,4.755,4.755L299.51,264.347l-4.754-4.754,2.254-3.234-7.172-3.694-12.823,12.823,3.694,7.172,3.233-2.254,4.755,4.755-13.476,13.475Zm2.581-26.11,9.075-9.074-18.394-9.482-.164.163Z"/><path class="cls-2" d="M338.144,167.191l-.19.136,18.692,39.884-5.326,5.326L311.6,193.9l-.135.19,18.121,16.6,6.222,6.222,5.053-3.423,4.754,4.755-16.383,16.383-4.753-4.755,3.4-5.027-28.393-28.391-5.025,3.4-4.782-4.782,4.212-4.211,10.35-10.351,39.232,19.073.164-.163L324.641,160.1l14.617-14.617,4.781,4.782-3.423,5.053,28.392,28.392,5.054-3.423,4.754,4.755-16.382,16.382-4.755-4.754,3.4-5.027-6.22-6.222Z"/><path class="cls-2" d="M376.479,177.869l2.417-3.234L356.537,128.2l8.124-8.124,46.35,22.441,3.233-2.417L419,144.858l-13.476,13.476-4.754-4.754,2.254-3.234-7.171-3.694-12.825,12.824,3.695,7.171,3.233-2.253,4.754,4.754-13.475,13.476Zm2.582-26.109,9.074-9.075L369.742,133.2l-.164.163Z"/><path class="cls-2" d="M400.877,83.864q6.792-6.792,14.21-7.227a17.809,17.809,0,0,1,18.27,18.271q-.474,7.378-7.267,14.169l-6.684,6.683,8.776,8.776,5.053-3.423,4.755,4.755L421.607,142.25l-4.753-4.754,3.394-5.027-28.391-28.391-5.026,3.4-4.782-4.782,4.211-4.211Zm12.417,25.783,6.684-6.683q3.315-3.315,3.206-6.82a9.13,9.13,0,0,0-2.909-6.3,9.51,9.51,0,0,0-6.411-3.016q-3.558-.162-6.874,3.152l-6.683,6.684Z"/><path class="cls-2" d="M79.146,539.137q6.983-6.984,13.612-8.178t12.036,4.211a12.145,12.145,0,0,1,3.45,6.357,12.415,12.415,0,0,1-.978,7.472,11.877,11.877,0,0,1,8.6-2.079,13.756,13.756,0,0,1,7.568,4.008q5.677,5.679,4.849,12.347t-7.7,13.545l-19.452,19.452-4.755-4.754,3.4-5.026L71.375,558.1l-5.025,3.4-4.782-4.781,4.211-4.211Zm11.139,22.006,5.7-5.705q3.178-3.18,3.587-6.195a6.343,6.343,0,0,0-2.093-5.515q-2.743-2.745-5.773-2.323T85.26,545.25l-5.435,5.434Zm5.488,5.488,11.411,11.412,7.308-7.309q3.153-3.152,3.438-6.181a7.031,7.031,0,0,0-2.405-5.719q-2.909-2.907-5.855-3.029t-5.99,2.92Z"/><path class="cls-2" d="M114.275,504.007l4.783,4.782-3.424,5.053,20.648,20.648q3.913,3.914,7.96,3.75t7.717-3.831q3.721-3.721,3.912-7.77t-3.75-7.989L131.473,498l-5.026,3.4-4.782-4.782,16.383-16.383,4.782,4.783-3.424,5.051,20.649,20.649q6.657,6.657,5.882,14.658t-7.892,15.119q-7.093,7.093-15.066,7.839t-14.63-5.909L107.7,521.775l-5.025,3.4-4.782-4.782,4.211-4.211,7.933-7.934Z"/><path class="cls-2" d="M175.215,443.067l10.542,10.542-6.086,6.086-4.755-4.1-7.281,7.281,27.875,27.875,5.054-3.422,4.754,4.754-16.41,16.41-4.754-4.754,3.422-5.054L159.7,470.807l-7.254,7.254,4.1,4.755-6.059,6.059-10.543-10.543Z"/><path class="cls-2" d="M247.457,380.389l-2.853,3.668,26.355,42.382L263.6,433.8l-33.364-18.856-.163.163,18.855,33.365-7.362,7.362-42.438-26.3-3.641,2.826-4.782-4.782,14.563-14.563,4.783,4.783-2.99,4.238,26.218,17.144.19-.136-19.7-34.532,5.841-5.842L254.2,418.316l.137-.189L237.16,391.936l-4.238,2.988-4.781-4.782,14.535-14.535Z"/><path class="cls-2" d="M249.8,378.052l-4.783-4.782L261.4,356.888l4.782,4.782-3.423,5.052,11.41,11.411L290.3,362l-11.411-11.411-5.053,3.424-4.782-4.782,4.238-4.239,7.906-7.906,4.238-4.238,4.783,4.782-3.424,5.053,28.391,28.391,5.054-3.423L325,372.4l-16.383,16.383-4.755-4.755,3.423-5.053-10.867-10.868-16.139,16.138,10.868,10.868,5.053-3.423,4.755,4.755L284.57,412.828l-4.754-4.754,3.4-5.027L254.82,374.656Z"/><path class="cls-2" d="M336.219,326.4,322.824,339.8l11.3,11.3,12.77-12.77-4.375-5.08,6.032-6.032,10.813,10.813-31.3,31.3-4.755-4.755,3.4-5.026-28.392-28.392-5.025,3.4-4.782-4.783,4.211-4.21,27.033-27.034L330.6,309.369l-6.086,6.086-5.081-4.374-12.66,12.661,9.943,9.944,13.394-13.395Z"/><path class="cls-2" d="M341.814,276.467q6.739-6.736,13.654-7.485t12.347,4.687a12.126,12.126,0,0,1,3.587,6.792,15.846,15.846,0,0,1-1.141,8.26,12.076,12.076,0,0,1,8.476-1.6,15.389,15.389,0,0,1,7.5,4.43l2.01,2.01a4.846,4.846,0,0,0,2.541,1.507,3.248,3.248,0,0,0,2.567-.855l1.114-.843,4.782,4.782-4.1,4.1q-3.885,3.885-7.552,3.368a12.365,12.365,0,0,1-6.983-3.83l-2.255-2.255a9,9,0,0,0-6.058-2.989,8.338,8.338,0,0,0-6.059,2.608l-6.494,6.494L370.18,316.08l5.052-3.423,4.755,4.754L363.6,333.794l-4.754-4.754,3.4-5.027-28.392-28.392-5.026,3.4-4.781-4.782,4.211-4.212Zm11.819,23.067,5.488-5.488q3.315-3.315,3.559-6.385a7.15,7.15,0,0,0-2.417-5.732,7.979,7.979,0,0,0-5.9-2.609q-3.234.056-6.439,3.261l-5.623,5.624Z"/><path class="cls-2" d="M410.009,252.613l-13.394,13.394,11.3,11.3,12.77-12.77-4.374-5.08,6.031-6.031,10.812,10.813-31.3,31.3-4.754-4.754,3.4-5.027-28.392-28.392-5.026,3.4-4.781-4.782,4.211-4.211,27.033-27.033,10.84,10.841-6.086,6.086-5.08-4.375-12.66,12.661L390.5,259.9,403.9,246.5Z"/><path class="cls-2" d="M445.872,242.018l2.417-3.234L425.93,192.353l8.123-8.124L480.4,206.67l3.234-2.417,4.754,4.754-13.475,13.476-4.755-4.754,2.254-3.234-7.173-3.695L452.42,223.624l3.694,7.172,3.234-2.254L464.1,233.3l-13.475,13.476Zm2.581-26.11,9.074-9.075-18.393-9.481-.163.163Z"/><path class="cls-2" d="M513.55,125.327l-.191.135,18.693,39.885-5.325,5.325-39.721-18.638-.136.19,18.122,16.6,6.221,6.221,5.054-3.422,4.754,4.754L504.639,192.76l-4.754-4.755,3.394-5.026-28.39-28.392-5.026,3.4L465.08,153.2l4.211-4.211,10.352-10.351,39.232,19.072.162-.163-18.99-39.314,14.617-14.616,4.781,4.782-3.424,5.053,28.393,28.391,5.053-3.423,4.755,4.755L537.839,159.56l-4.755-4.755,3.4-5.026-6.222-6.222Z"/><path class="cls-2" d="M551.885,136l2.418-3.233-22.36-46.432,8.123-8.123,46.35,22.441,3.234-2.417,4.754,4.754L580.929,116.47l-4.755-4.755,2.254-3.233-7.172-3.695L558.433,117.61l3.694,7.173,3.234-2.254,4.754,4.754L556.64,140.759Zm2.581-26.109,9.075-9.075-18.4-9.482-.162.163Z"/><path class="cls-2" d="M576.283,42q6.792-6.792,14.209-7.228a16.483,16.483,0,0,1,13.068,5.217,16.35,16.35,0,0,1,5.2,13.054q-.478,7.379-7.268,14.169L594.813,73.9l8.775,8.775,5.053-3.422L613.4,84l-16.382,16.383-4.755-4.755,3.4-5.027L567.263,62.213l-5.027,3.4-4.781-4.782,4.211-4.212ZM588.7,67.783l6.684-6.684q3.313-3.313,3.2-6.819a9.131,9.131,0,0,0-2.906-6.3,9.514,9.514,0,0,0-6.412-3.016q-3.561-.162-6.874,3.152L575.713,54.8Z"/><path class="cls-2" d="M114.428,646.96l-2.854,3.667,26.355,42.384-7.363,7.362L97.2,681.518l-.164.164L115.9,715.045l-7.363,7.362-42.438-26.3-3.64,2.827-4.782-4.783,14.562-14.562,4.783,4.782-2.99,4.238,26.219,17.145.19-.137-19.7-34.531,5.842-5.842,34.586,19.643.136-.19-17.171-26.191L99.893,661.5l-4.783-4.782,14.536-14.535Z"/><path class="cls-2" d="M168.223,623.758q8.694,8.694,9.4,19.344t-7.336,18.691q-8.016,8.016-18.625,7.268t-19.3-9.441l-.6-.6q-8.64-8.639-9.428-19.261t7.227-18.639q8.041-8.04,18.732-7.322t19.331,9.36Zm-8.559,7.254q-6.141-6.141-12.525-7.418t-11.383,3.722q-5,5-3.654,11.262t7.539,12.457l.652.652q6.249,6.249,12.552,7.58t11.274-3.64q5.028-5.028,3.736-11.371t-7.539-12.593Z"/><path class="cls-2" d="M167.244,584.58l4.781,4.781-3.423,5.053,20.648,20.649q3.913,3.913,7.961,3.75t7.716-3.832q3.721-3.721,3.913-7.769t-3.75-7.988l-20.649-20.649-5.025,3.4-4.782-4.783,16.383-16.382,4.782,4.782-3.424,5.053,20.648,20.648q6.657,6.659,5.882,14.657t-7.892,15.12q-7.092,7.092-15.066,7.838T181.317,623l-20.648-20.648-5.026,3.4-4.782-4.781,4.211-4.212,7.934-7.933Z"/><path class="cls-2" d="M232.912,598.027l-4.755-4.754,3.4-5.026-28.392-28.392-5.025,3.4-4.782-4.782,4.21-4.211,7.934-7.933,4.238-4.238,4.782,4.781-3.424,5.053L238.97,579.8l11.167-11.167-4.592-5.352,6.059-6.058,11.057,11.057Z"/><path class="cls-2" d="M243.752,508.072q7.254-7.255,16.586-7.322t16.588,7.186l6.547,6.548q7.281,7.281,7.185,16.586t-7.348,16.56l-17.8,17.8-4.754-4.755,3.4-5.026-28.392-28.393-5.026,3.4-4.782-4.782,4.212-4.211Zm.462,11.764L271.572,547.2l5.244-5.244a11.674,11.674,0,0,0,3.8-9.563q-.461-5.3-5.107-9.944l-6.6-6.6a15.879,15.879,0,0,0-9.889-5.054,11.678,11.678,0,0,0-9.564,3.8Z"/><path class="cls-2" d="M345.88,476.257a24.859,24.859,0,0,1-2.188,9.06,34.675,34.675,0,0,1-7.811,10.882q-8.014,8.014-18.406,7.675T298.5,494.949l-1.358-1.358q-8.885-8.885-9.5-19.413t7.377-18.515a33.161,33.161,0,0,1,9.97-7.01,25.929,25.929,0,0,1,10.406-2.391l7.96,7.961-5.868,5.869-6.412-4.185a11.538,11.538,0,0,0-4.347,1.386,19.377,19.377,0,0,0-4.645,3.531,13.452,13.452,0,0,0-4.238,11.9q.949,6.709,7.144,12.9l1.413,1.413q6.031,6.032,12.457,6.806t11.75-4.551a21.268,21.268,0,0,0,3.464-4.278,12.031,12.031,0,0,0,1.373-3.275l-6.711-6.711-6.086,5.216-5.57-5.569,13.611-13.613Z"/><path class="cls-2" d="M370.93,421.05q8.7,8.694,9.4,19.345t-7.336,18.691q-8.016,8.016-18.625,7.268t-19.3-9.441l-.6-.6q-8.64-8.639-9.428-19.262t7.227-18.638q8.042-8.041,18.733-7.322t19.331,9.359Zm-8.559,7.255q-6.141-6.141-12.524-7.418t-11.384,3.722q-5,5-3.654,11.261t7.539,12.458l.652.651q6.249,6.251,12.552,7.581t11.275-3.641q5.026-5.026,3.736-11.37t-7.54-12.593Z"/><path class="cls-2" d="M372.424,388.964l-4.782-4.782L384.024,367.8l4.783,4.782-3.424,5.053,28.391,28.391,5.054-3.422,4.754,4.754L407.2,423.74l-4.754-4.755,3.424-5.053L377.477,385.54Z"/><path class="cls-2" d="M421.844,399.586l3.4-5.026-28.392-28.392-5.026,3.4-4.781-4.782,31.488-31.489,10.841,10.841-6.086,6.086-5.081-4.374-12.9,12.9,10.894,10.9,13.856-13.856,6.113,6.113-13.856,13.856,10.868,10.867,5.053-3.422,4.753,4.754L426.6,404.341Z"/><path class="cls-2" d="M454.257,307.131l-2.772,3.7,19.126,6.846.163-.163-6.845-19.126-3.668,2.744-4.782-4.782,14.97-14.97,4.781,4.782-2.824,3.912,9.563,31.08,8.341,8.341,5.053-3.422,4.754,4.754-16.383,16.383-4.754-4.754L482.4,337.4l-8.749-8.748L443.172,319.3l-3.885,2.8-4.783-4.782,14.971-14.97Z"/><path class="cls-2" d="M528.481,263.5q8.694,8.694,9.4,19.344t-7.335,18.692q-8.016,8.014-18.625,7.268t-19.3-9.441l-.6-.6q-8.64-8.64-9.427-19.263t7.226-18.638q8.043-8.042,18.733-7.322t19.33,9.36Zm-8.557,7.254q-6.141-6.141-12.526-7.418t-11.383,3.723q-5,5-3.654,11.261t7.539,12.457l.653.652q6.249,6.249,12.551,7.58t11.275-3.64q5.027-5.026,3.736-11.371T520.576,271.4Z"/><path class="cls-2" d="M527.5,224.319l4.782,4.783-3.425,5.053L549.51,254.8q3.914,3.913,7.961,3.749t7.716-3.83q3.721-3.723,3.913-7.77t-3.75-7.988L544.7,218.315l-5.025,3.4-4.782-4.782,16.382-16.383,4.783,4.782-3.424,5.053,20.648,20.648q6.657,6.657,5.882,14.658t-7.893,15.12q-7.091,7.091-15.065,7.838t-14.63-5.91l-20.648-20.648-5.027,3.4-4.781-4.782,4.211-4.212,7.934-7.933Z"/><path class="cls-2" d="M623.274,138.113l-2.852,3.668,26.353,42.383-7.363,7.363-33.363-18.856-.162.163L624.741,206.2l-7.362,7.363-42.438-26.3-3.64,2.826-4.783-4.782,14.563-14.563,4.782,4.782-2.989,4.239,26.218,17.144.19-.136-19.7-34.532,5.842-5.842,34.586,19.644.136-.19L612.977,149.66l-4.238,2.988-4.782-4.782,14.535-14.535Z"/><path class="cls-2" d="M668.537,127.625l-13.394,13.394,11.3,11.3,12.77-12.769-4.373-5.081,6.031-6.031,10.813,10.813-31.3,31.3-4.754-4.754,3.395-5.027L630.637,132.38l-5.026,3.4-4.782-4.782,4.211-4.211L652.073,99.75l10.841,10.841-6.086,6.086-5.08-4.375-12.661,12.661,9.944,9.944,13.394-13.394Z"/><path class="cls-2" d="M674.135,77.689q6.736-6.738,13.652-7.485t12.348,4.687a12.131,12.131,0,0,1,3.586,6.792,15.842,15.842,0,0,1-1.141,8.259,12.078,12.078,0,0,1,8.477-1.6,15.377,15.377,0,0,1,7.5,4.429l2.009,2.01a4.854,4.854,0,0,0,2.54,1.508,3.248,3.248,0,0,0,2.568-.856l1.113-.842,4.782,4.782-4.1,4.1q-3.885,3.885-7.553,3.368a12.367,12.367,0,0,1-6.982-3.831l-2.255-2.255a9,9,0,0,0-6.059-2.988,8.327,8.327,0,0,0-6.058,2.608l-6.494,6.494L702.5,117.3l5.055-3.423,4.754,4.755-16.383,16.382-4.754-4.754,3.4-5.027L666.174,96.843l-5.026,3.4-4.782-4.782,4.211-4.211Zm11.818,23.066,5.488-5.488q3.313-3.313,3.559-6.385a7.152,7.152,0,0,0-2.418-5.732,7.979,7.979,0,0,0-5.9-2.608q-3.233.055-6.438,3.26l-5.625,5.624Z"/><path class="cls-2" d="M742.328,53.834,728.934,67.229l11.3,11.3,12.77-12.769-4.374-5.08,6.032-6.032,10.813,10.813-31.3,31.3-4.754-4.755,3.395-5.027L704.428,58.589l-5.026,3.4L694.619,57.2l4.212-4.212,27.033-27.033L736.705,36.8l-6.086,6.086-5.081-4.374-12.661,12.66,9.944,9.944,13.395-13.394Z"/><path class="cls-2" d="M326.755,583.875l-5.95,5.95-6.467-4.4a14.9,14.9,0,0,0-4.156,1.875,24.766,24.766,0,0,0-4.7,3.722q-3.26,3.261-3.668,6.412a6.048,6.048,0,0,0,1.766,5.325,5.483,5.483,0,0,0,5.162,1.439A36.322,36.322,0,0,0,317.9,600.5q8.368-4.727,14.739-5.122a14.1,14.1,0,0,1,11.234,4.47,13.281,13.281,0,0,1,3.994,12.036q-1.086,6.954-7.662,13.529a32.464,32.464,0,0,1-9.984,7,24.735,24.735,0,0,1-10.447,2.188l-8.258-8.26,6.139-6.14,6.466,4.781a13.549,13.549,0,0,0,4.863-1.629,21.719,21.719,0,0,0,5.217-3.94q3.261-3.261,3.627-6.29a6.074,6.074,0,0,0-1.861-5.257,6.5,6.5,0,0,0-5.284-2.052q-3,.234-8.273,3.058-9.077,5-15.486,5.814a12.96,12.96,0,0,1-11.276-4.048,13.325,13.325,0,0,1-3.791-11.942q1.02-7.131,7.106-13.38a33.684,33.684,0,0,1,9.7-6.928,27.122,27.122,0,0,1,10-2.608Z"/><path class="cls-2" d="M374.056,551.463q8.694,8.7,9.4,19.344T376.12,589.5q-8.014,8.014-18.624,7.268t-19.3-9.441l-.6-.6q-8.64-8.64-9.428-19.264t7.227-18.637q8.041-8.042,18.732-7.322t19.331,9.359Zm-8.558,7.254q-6.141-6.139-12.525-7.417t-11.385,3.721q-5,5-3.652,11.262t7.539,12.457l.652.653q6.249,6.249,12.551,7.58t11.275-3.641q5.028-5.028,3.736-11.371t-7.54-12.592Z"/><path class="cls-2" d="M375.551,519.377l-4.782-4.782,16.382-16.383,4.783,4.782-3.424,5.053,28.39,28.391,5.055-3.422,4.754,4.754-16.383,16.382-4.754-4.754L409,544.344,380.6,515.953Z"/><path class="cls-2" d="M430.6,454.769l4.782,4.782-3.424,5.053,33.961,33.96-7.906,7.907-42.6-10.651-.135.19L436.3,517.039l5.054-3.422,4.753,4.754-16.382,16.383L424.971,530l3.4-5.026-28.391-28.392-5.027,3.4-4.781-4.783,4.211-4.211,7.934-7.933,42.6,10.65.137-.189-21-21-5.053,3.424-4.782-4.783,12.144-12.144Z"/><path class="cls-2" d="M478.9,433.142l-5.895,5.895-6.085-4.455a11.687,11.687,0,0,0-4.8,1.1,16.613,16.613,0,0,0-4.877,3.517q-5.162,5.163-4.2,11.7t7,12.567l1.387,1.386q6.031,6.03,12.579,7.036a12.923,12.923,0,0,0,11.6-4.048,18.209,18.209,0,0,0,3.6-4.959,10.083,10.083,0,0,0,1.155-4.85l-4.456-6.085,5.9-5.9,7.824,7.824a24.067,24.067,0,0,1-1.685,10.516,28.648,28.648,0,0,1-6.657,9.943q-7.96,7.961-18.556,7.525T453.5,472.781l-1.331-1.331q-8.611-8.611-9.1-19.208t7.528-18.611a28.106,28.106,0,0,1,9.957-6.615,25.13,25.13,0,0,1,10.527-1.7Z"/><path class="cls-2" d="M508.76,455.719l-4.755-4.754,3.395-5.027-28.39-28.391-5.027,3.4-4.782-4.781,4.212-4.212,7.933-7.932,4.238-4.239,4.782,4.782-3.423,5.052,27.875,27.876,11.166-11.167-4.59-5.351,6.058-6.059,11.058,11.057Z"/><path class="cls-2" d="M506.559,388.368l-4.782-4.782L518.16,367.2l4.781,4.782-3.423,5.054,28.391,28.391,5.054-3.424,4.755,4.755-16.384,16.384-4.754-4.755L540,413.336l-28.392-28.392Z"/><path class="cls-2" d="M561.6,323.76l4.781,4.782-3.424,5.053,33.961,33.961-7.906,7.906-42.6-10.65-.137.19,21.03,21.029,5.052-3.423,4.755,4.754-16.383,16.383-4.754-4.754,3.4-5.027-28.391-28.391-5.027,3.4-4.781-4.781,4.211-4.212,7.933-7.933,42.6,10.65.136-.19-21-21L550,344.925l-4.781-4.782L557.365,328Z"/><path class="cls-2" d="M611.865,317.837l-13.394,13.394,11.3,11.3,12.77-12.769-4.374-5.081,6.031-6.032,10.814,10.813-31.3,31.3-4.754-4.755,3.394-5.026-28.39-28.391-5.026,3.4-4.782-4.782L568.368,317,595.4,289.962l10.841,10.84-6.086,6.086-5.081-4.373-12.66,12.66,9.943,9.943,13.394-13.394Z"/><path class="cls-2" d="M617.489,267.874q7.255-7.254,16.587-7.323t16.587,7.187l6.548,6.548q7.279,7.281,7.185,16.586t-7.349,16.56l-17.8,17.795-4.755-4.754,3.4-5.027L609.5,287.055l-5.026,3.4-4.783-4.782,4.212-4.211Zm.462,11.764L645.311,307l5.244-5.244a11.675,11.675,0,0,0,3.8-9.564q-.461-5.3-5.107-9.943l-6.6-6.6a15.881,15.881,0,0,0-9.89-5.054A11.679,11.679,0,0,0,623.2,274.4Z"/></svg>